{
  "bpm": 132,
  "bars": 44,
  "beatsPerBar": 3,
  "beats": 132,
  "stepsPerBeat": 4,
  "sustain": true,
  "tracks": [
    {
      "id": "example-brahms-waltz-op39-no15-track-1",
      "name": "右手旋律",
      "color": "#8b5cf6",
      "program": 0,
      "volume": 94,
      "notes": [
        {
          "id": "example-brahms-waltz-op39-no15-track-1-note-1",
          "pitch": 72,
          "start": 0,
          "duration": 6,
          "velocity": 127
        },
        {
          "id": "example-brahms-waltz-op39-no15-track-1-note-2",
          "pitch": 63,
          "start": 0,
          "duration": 6,
          "velocity": 127
        },
        {
          "id": "example-brahms-waltz-op39-no15-track-1-note-3",
          "pitch": 68,
          "start": 6,
          "duration": 2,
          "velocity": 127
        },
        {
          "id": "example-brahms-waltz-op39-no15-track-1-note-4",
          "pitch": 60,
          "start": 6,
          "duration": 2,
          "velocity": 127
        },
        {
          "id": "example-brahms-waltz-op39-no15-track-1-note-5",
          "pitch": 68,
          "start": 8,
          "duration": 2,
          "velocity": 127
        },
        {
          "id": "example-brahms-waltz-op39-no15-track-1-note-6",
          "pitch": 60,
          "start": 8,
          "duration": 2,
          "velocity": 127
        },
        {
          "id": "example-brahms-waltz-op39-no15-track-1-note-7",
          "pitch": 72,
          "start": 10,
          "duration": 2,
          "velocity": 127
        },
        {
          "id": "example-brahms-waltz-op39-no15-track-1-note-8",
          "pitch": 63,
          "start": 10,
          "duration": 2,
          "velocity": 127
        },
        {
          "id": "example-brahms-waltz-op39-no15-track-1-note-9",
          "pitch": 72,
          "start": 12,
          "duration": 6,
          "velocity": 127
        },
        {
          "id": "example-brahms-waltz-op39-no15-track-1-note-10",
          "pitch": 63,
          "start": 12,
          "duration": 6,
          "velocity": 127
        },
        {
          "id": "example-brahms-waltz-op39-no15-track-1-note-11",
          "pitch": 68,
          "start": 18,
          "duration": 2,
          "velocity": 127
        },
        {
          "id": "example-brahms-waltz-op39-no15-track-1-note-12",
          "pitch": 60,
          "start": 18,
          "duration": 2,
          "velocity": 127
        },
        {
          "id": "example-brahms-waltz-op39-no15-track-1-note-13",
          "pitch": 68,
          "start": 20,
          "duration": 2,
          "velocity": 127
        },
        {
          "id": "example-brahms-waltz-op39-no15-track-1-note-14",
          "pitch": 60,
          "start": 20,
          "duration": 2,
          "velocity": 127
        },
        {
          "id": "example-brahms-waltz-op39-no15-track-1-note-15",
          "pitch": 72,
          "start": 22,
          "duration": 2,
          "velocity": 127
        },
        {
          "id": "example-brahms-waltz-op39-no15-track-1-note-16",
          "pitch": 63,
          "start": 22,
          "duration": 2,
          "velocity": 127
        },
        {
          "id": "example-brahms-waltz-op39-no15-track-1-note-17",
          "pitch": 73,
          "start": 24,
          "duration": 2,
          "velocity": 127
        },
        {
          "id": "example-brahms-waltz-op39-no15-track-1-note-18",
          "pitch": 75,
          "start": 26,
          "duration": 1,
          "velocity": 127
        },
        {
          "id": "example-brahms-waltz-op39-no15-track-1-note-19",
          "pitch": 65,
          "start": 24,
          "duration": 4,
          "velocity": 127
        },
        {
          "id": "example-brahms-waltz-op39-no15-track-1-note-20",
          "pitch": 68,
          "start": 24,
          "duration": 4,
          "velocity": 127
        },
        {
          "id": "example-brahms-waltz-op39-no15-track-1-note-21",
          "pitch": 73,
          "start": 27,
          "duration": 1,
          "velocity": 127
        },
        {
          "id": "example-brahms-waltz-op39-no15-track-1-note-22",
          "pitch": 72,
          "start": 28,
          "duration": 4,
          "velocity": 127
        },
        {
          "id": "example-brahms-waltz-op39-no15-track-1-note-23",
          "pitch": 68,
          "start": 28,
          "duration": 4,
          "velocity": 127
        },
        {
          "id": "example-brahms-waltz-op39-no15-track-1-note-24",
          "pitch": 63,
          "start": 28,
          "duration": 4,
          "velocity": 127
        },
        {
          "id": "example-brahms-waltz-op39-no15-track-1-note-25",
          "pitch": 70,
          "start": 32,
          "duration": 4,
          "velocity": 127
        },
        {
          "id": "example-brahms-waltz-op39-no15-track-1-note-26",
          "pitch": 68,
          "start": 32,
          "duration": 4,
          "velocity": 127
        },
        {
          "id": "example-brahms-waltz-op39-no15-track-1-note-27",
          "pitch": 61,
          "start": 32,
          "duration": 4,
          "velocity": 127
        },
        {
          "id": "example-brahms-waltz-op39-no15-track-1-note-28",
          "pitch": 72,
          "start": 36,
          "duration": 6,
          "velocity": 127
        },
        {
          "id": "example-brahms-waltz-op39-no15-track-1-note-29",
          "pitch": 68,
          "start": 36,
          "duration": 6,
          "velocity": 127
        },
        {
          "id": "example-brahms-waltz-op39-no15-track-1-note-30",
          "pitch": 63,
          "start": 36,
          "duration": 6,
          "velocity": 127
        },
        {
          "id": "example-brahms-waltz-op39-no15-track-1-note-31",
          "pitch": 68,
          "start": 42,
          "duration": 2,
          "velocity": 127
        },
        {
          "id": "example-brahms-waltz-op39-no15-track-1-note-32",
          "pitch": 68,
          "start": 44,
          "duration": 2,
          "velocity": 127
        },
        {
          "id": "example-brahms-waltz-op39-no15-track-1-note-33",
          "pitch": 75,
          "start": 46,
          "duration": 2,
          "velocity": 127
        },
        {
          "id": "example-brahms-waltz-op39-no15-track-1-note-34",
          "pitch": 72,
          "start": 46,
          "duration": 2,
          "velocity": 127
        },
        {
          "id": "example-brahms-waltz-op39-no15-track-1-note-35",
          "pitch": 77,
          "start": 48,
          "duration": 6,
          "velocity": 127
        },
        {
          "id": "example-brahms-waltz-op39-no15-track-1-note-36",
          "pitch": 72,
          "start": 48,
          "duration": 6,
          "velocity": 127
        },
        {
          "id": "example-brahms-waltz-op39-no15-track-1-note-37",
          "pitch": 68,
          "start": 48,
          "duration": 6,
          "velocity": 127
        },
        {
          "id": "example-brahms-waltz-op39-no15-track-1-note-38",
          "pitch": 72,
          "start": 54,
          "duration": 2,
          "velocity": 127
        },
        {
          "id": "example-brahms-waltz-op39-no15-track-1-note-39",
          "pitch": 68,
          "start": 54,
          "duration": 2,
          "velocity": 127
        },
        {
          "id": "example-brahms-waltz-op39-no15-track-1-note-40",
          "pitch": 72,
          "start": 56,
          "duration": 2,
          "velocity": 127
        },
        {
          "id": "example-brahms-waltz-op39-no15-track-1-note-41",
          "pitch": 68,
          "start": 56,
          "duration": 2,
          "velocity": 127
        },
        {
          "id": "example-brahms-waltz-op39-no15-track-1-note-42",
          "pitch": 75,
          "start": 58,
          "duration": 2,
          "velocity": 127
        },
        {
          "id": "example-brahms-waltz-op39-no15-track-1-note-43",
          "pitch": 77,
          "start": 60,
          "duration": 6,
          "velocity": 127
        },
        {
          "id": "example-brahms-waltz-op39-no15-track-1-note-44",
          "pitch": 72,
          "start": 60,
          "duration": 6,
          "velocity": 127
        },
        {
          "id": "example-brahms-waltz-op39-no15-track-1-note-45",
          "pitch": 68,
          "start": 60,
          "duration": 6,
          "velocity": 127
        },
        {
          "id": "example-brahms-waltz-op39-no15-track-1-note-46",
          "pitch": 72,
          "start": 66,
          "duration": 2,
          "velocity": 127
        },
        {
          "id": "example-brahms-waltz-op39-no15-track-1-note-47",
          "pitch": 68,
          "start": 66,
          "duration": 2,
          "velocity": 127
        },
        {
          "id": "example-brahms-waltz-op39-no15-track-1-note-48",
          "pitch": 72,
          "start": 68,
          "duration": 2,
          "velocity": 127
        },
        {
          "id": "example-brahms-waltz-op39-no15-track-1-note-49",
          "pitch": 68,
          "start": 68,
          "duration": 2,
          "velocity": 127
        },
        {
          "id": "example-brahms-waltz-op39-no15-track-1-note-50",
          "pitch": 75,
          "start": 70,
          "duration": 2,
          "velocity": 127
        },
        {
          "id": "example-brahms-waltz-op39-no15-track-1-note-51",
          "pitch": 79,
          "start": 72,
          "duration": 2,
          "velocity": 127
        },
        {
          "id": "example-brahms-waltz-op39-no15-track-1-note-52",
          "pitch": 72,
          "start": 72,
          "duration": 4,
          "velocity": 127
        },
        {
          "id": "example-brahms-waltz-op39-no15-track-1-note-53",
          "pitch": 67,
          "start": 72,
          "duration": 4,
          "velocity": 127
        },
        {
          "id": "example-brahms-waltz-op39-no15-track-1-note-54",
          "pitch": 77,
          "start": 74,
          "duration": 2,
          "velocity": 127
        },
        {
          "id": "example-brahms-waltz-op39-no15-track-1-note-55",
          "pitch": 75,
          "start": 76,
          "duration": 4,
          "velocity": 127
        },
        {
          "id": "example-brahms-waltz-op39-no15-track-1-note-56",
          "pitch": 72,
          "start": 76,
          "duration": 4,
          "velocity": 127
        },
        {
          "id": "example-brahms-waltz-op39-no15-track-1-note-57",
          "pitch": 67,
          "start": 76,
          "duration": 4,
          "velocity": 127
        },
        {
          "id": "example-brahms-waltz-op39-no15-track-1-note-58",
          "pitch": 74,
          "start": 80,
          "duration": 4,
          "velocity": 127
        },
        {
          "id": "example-brahms-waltz-op39-no15-track-1-note-59",
          "pitch": 71,
          "start": 80,
          "duration": 4,
          "velocity": 127
        },
        {
          "id": "example-brahms-waltz-op39-no15-track-1-note-60",
          "pitch": 65,
          "start": 80,
          "duration": 4,
          "velocity": 127
        },
        {
          "id": "example-brahms-waltz-op39-no15-track-1-note-61",
          "pitch": 75,
          "start": 84,
          "duration": 6,
          "velocity": 127
        },
        {
          "id": "example-brahms-waltz-op39-no15-track-1-note-62",
          "pitch": 72,
          "start": 84,
          "duration": 6,
          "velocity": 127
        },
        {
          "id": "example-brahms-waltz-op39-no15-track-1-note-63",
          "pitch": 67,
          "start": 84,
          "duration": 6,
          "velocity": 127
        },
        {
          "id": "example-brahms-waltz-op39-no15-track-1-note-64",
          "pitch": 67,
          "start": 90,
          "duration": 2,
          "velocity": 127
        },
        {
          "id": "example-brahms-waltz-op39-no15-track-1-note-65",
          "pitch": 63,
          "start": 90,
          "duration": 2,
          "velocity": 127
        },
        {
          "id": "example-brahms-waltz-op39-no15-track-1-note-66",
          "pitch": 67,
          "start": 92,
          "duration": 2,
          "velocity": 127
        },
        {
          "id": "example-brahms-waltz-op39-no15-track-1-note-67",
          "pitch": 63,
          "start": 92,
          "duration": 2,
          "velocity": 127
        },
        {
          "id": "example-brahms-waltz-op39-no15-track-1-note-68",
          "pitch": 72,
          "start": 94,
          "duration": 2,
          "velocity": 127
        },
        {
          "id": "example-brahms-waltz-op39-no15-track-1-note-69",
          "pitch": 72,
          "start": 96,
          "duration": 6,
          "velocity": 127
        },
        {
          "id": "example-brahms-waltz-op39-no15-track-1-note-70",
          "pitch": 63,
          "start": 96,
          "duration": 6,
          "velocity": 127
        },
        {
          "id": "example-brahms-waltz-op39-no15-track-1-note-71",
          "pitch": 68,
          "start": 102,
          "duration": 2,
          "velocity": 127
        },
        {
          "id": "example-brahms-waltz-op39-no15-track-1-note-72",
          "pitch": 60,
          "start": 102,
          "duration": 2,
          "velocity": 127
        },
        {
          "id": "example-brahms-waltz-op39-no15-track-1-note-73",
          "pitch": 68,
          "start": 104,
          "duration": 2,
          "velocity": 127
        },
        {
          "id": "example-brahms-waltz-op39-no15-track-1-note-74",
          "pitch": 60,
          "start": 104,
          "duration": 2,
          "velocity": 127
        },
        {
          "id": "example-brahms-waltz-op39-no15-track-1-note-75",
          "pitch": 72,
          "start": 106,
          "duration": 2,
          "velocity": 127
        },
        {
          "id": "example-brahms-waltz-op39-no15-track-1-note-76",
          "pitch": 63,
          "start": 106,
          "duration": 2,
          "velocity": 127
        },
        {
          "id": "example-brahms-waltz-op39-no15-track-1-note-77",
          "pitch": 72,
          "start": 108,
          "duration": 6,
          "velocity": 127
        },
        {
          "id": "example-brahms-waltz-op39-no15-track-1-note-78",
          "pitch": 63,
          "start": 108,
          "duration": 6,
          "velocity": 127
        },
        {
          "id": "example-brahms-waltz-op39-no15-track-1-note-79",
          "pitch": 68,
          "start": 114,
          "duration": 2,
          "velocity": 127
        },
        {
          "id": "example-brahms-waltz-op39-no15-track-1-note-80",
          "pitch": 60,
          "start": 114,
          "duration": 2,
          "velocity": 127
        },
        {
          "id": "example-brahms-waltz-op39-no15-track-1-note-81",
          "pitch": 68,
          "start": 116,
          "duration": 2,
          "velocity": 127
        },
        {
          "id": "example-brahms-waltz-op39-no15-track-1-note-82",
          "pitch": 60,
          "start": 116,
          "duration": 2,
          "velocity": 127
        },
        {
          "id": "example-brahms-waltz-op39-no15-track-1-note-83",
          "pitch": 72,
          "start": 118,
          "duration": 2,
          "velocity": 127
        },
        {
          "id": "example-brahms-waltz-op39-no15-track-1-note-84",
          "pitch": 63,
          "start": 118,
          "duration": 2,
          "velocity": 127
        },
        {
          "id": "example-brahms-waltz-op39-no15-track-1-note-85",
          "pitch": 73,
          "start": 120,
          "duration": 2,
          "velocity": 127
        },
        {
          "id": "example-brahms-waltz-op39-no15-track-1-note-86",
          "pitch": 75,
          "start": 122,
          "duration": 1,
          "velocity": 127
        },
        {
          "id": "example-brahms-waltz-op39-no15-track-1-note-87",
          "pitch": 65,
          "start": 120,
          "duration": 4,
          "velocity": 127
        },
        {
          "id": "example-brahms-waltz-op39-no15-track-1-note-88",
          "pitch": 68,
          "start": 120,
          "duration": 4,
          "velocity": 127
        },
        {
          "id": "example-brahms-waltz-op39-no15-track-1-note-89",
          "pitch": 73,
          "start": 123,
          "duration": 1,
          "velocity": 127
        },
        {
          "id": "example-brahms-waltz-op39-no15-track-1-note-90",
          "pitch": 72,
          "start": 124,
          "duration": 4,
          "velocity": 127
        },
        {
          "id": "example-brahms-waltz-op39-no15-track-1-note-91",
          "pitch": 68,
          "start": 124,
          "duration": 4,
          "velocity": 127
        },
        {
          "id": "example-brahms-waltz-op39-no15-track-1-note-92",
          "pitch": 63,
          "start": 124,
          "duration": 4,
          "velocity": 127
        },
        {
          "id": "example-brahms-waltz-op39-no15-track-1-note-93",
          "pitch": 70,
          "start": 128,
          "duration": 4,
          "velocity": 127
        },
        {
          "id": "example-brahms-waltz-op39-no15-track-1-note-94",
          "pitch": 68,
          "start": 128,
          "duration": 4,
          "velocity": 127
        },
        {
          "id": "example-brahms-waltz-op39-no15-track-1-note-95",
          "pitch": 61,
          "start": 128,
          "duration": 4,
          "velocity": 127
        },
        {
          "id": "example-brahms-waltz-op39-no15-track-1-note-96",
          "pitch": 72,
          "start": 132,
          "duration": 6,
          "velocity": 127
        },
        {
          "id": "example-brahms-waltz-op39-no15-track-1-note-97",
          "pitch": 68,
          "start": 132,
          "duration": 6,
          "velocity": 127
        },
        {
          "id": "example-brahms-waltz-op39-no15-track-1-note-98",
          "pitch": 63,
          "start": 132,
          "duration": 6,
          "velocity": 127
        },
        {
          "id": "example-brahms-waltz-op39-no15-track-1-note-99",
          "pitch": 68,
          "start": 138,
          "duration": 2,
          "velocity": 127
        },
        {
          "id": "example-brahms-waltz-op39-no15-track-1-note-100",
          "pitch": 68,
          "start": 140,
          "duration": 2,
          "velocity": 127
        },
        {
          "id": "example-brahms-waltz-op39-no15-track-1-note-101",
          "pitch": 75,
          "start": 142,
          "duration": 2,
          "velocity": 127
        },
        {
          "id": "example-brahms-waltz-op39-no15-track-1-note-102",
          "pitch": 72,
          "start": 142,
          "duration": 2,
          "velocity": 127
        },
        {
          "id": "example-brahms-waltz-op39-no15-track-1-note-103",
          "pitch": 77,
          "start": 144,
          "duration": 6,
          "velocity": 127
        },
        {
          "id": "example-brahms-waltz-op39-no15-track-1-note-104",
          "pitch": 72,
          "start": 144,
          "duration": 6,
          "velocity": 127
        },
        {
          "id": "example-brahms-waltz-op39-no15-track-1-note-105",
          "pitch": 68,
          "start": 144,
          "duration": 6,
          "velocity": 127
        },
        {
          "id": "example-brahms-waltz-op39-no15-track-1-note-106",
          "pitch": 72,
          "start": 150,
          "duration": 2,
          "velocity": 127
        },
        {
          "id": "example-brahms-waltz-op39-no15-track-1-note-107",
          "pitch": 68,
          "start": 150,
          "duration": 2,
          "velocity": 127
        },
        {
          "id": "example-brahms-waltz-op39-no15-track-1-note-108",
          "pitch": 72,
          "start": 152,
          "duration": 2,
          "velocity": 127
        },
        {
          "id": "example-brahms-waltz-op39-no15-track-1-note-109",
          "pitch": 68,
          "start": 152,
          "duration": 2,
          "velocity": 127
        },
        {
          "id": "example-brahms-waltz-op39-no15-track-1-note-110",
          "pitch": 75,
          "start": 154,
          "duration": 2,
          "velocity": 127
        },
        {
          "id": "example-brahms-waltz-op39-no15-track-1-note-111",
          "pitch": 77,
          "start": 156,
          "duration": 6,
          "velocity": 127
        },
        {
          "id": "example-brahms-waltz-op39-no15-track-1-note-112",
          "pitch": 72,
          "start": 156,
          "duration": 6,
          "velocity": 127
        },
        {
          "id": "example-brahms-waltz-op39-no15-track-1-note-113",
          "pitch": 68,
          "start": 156,
          "duration": 6,
          "velocity": 127
        },
        {
          "id": "example-brahms-waltz-op39-no15-track-1-note-114",
          "pitch": 72,
          "start": 162,
          "duration": 2,
          "velocity": 127
        },
        {
          "id": "example-brahms-waltz-op39-no15-track-1-note-115",
          "pitch": 68,
          "start": 162,
          "duration": 2,
          "velocity": 127
        },
        {
          "id": "example-brahms-waltz-op39-no15-track-1-note-116",
          "pitch": 72,
          "start": 164,
          "duration": 2,
          "velocity": 127
        },
        {
          "id": "example-brahms-waltz-op39-no15-track-1-note-117",
          "pitch": 68,
          "start": 164,
          "duration": 2,
          "velocity": 127
        },
        {
          "id": "example-brahms-waltz-op39-no15-track-1-note-118",
          "pitch": 75,
          "start": 166,
          "duration": 2,
          "velocity": 127
        },
        {
          "id": "example-brahms-waltz-op39-no15-track-1-note-119",
          "pitch": 79,
          "start": 168,
          "duration": 2,
          "velocity": 127
        },
        {
          "id": "example-brahms-waltz-op39-no15-track-1-note-120",
          "pitch": 72,
          "start": 168,
          "duration": 4,
          "velocity": 127
        },
        {
          "id": "example-brahms-waltz-op39-no15-track-1-note-121",
          "pitch": 67,
          "start": 168,
          "duration": 4,
          "velocity": 127
        },
        {
          "id": "example-brahms-waltz-op39-no15-track-1-note-122",
          "pitch": 77,
          "start": 170,
          "duration": 2,
          "velocity": 127
        },
        {
          "id": "example-brahms-waltz-op39-no15-track-1-note-123",
          "pitch": 75,
          "start": 172,
          "duration": 4,
          "velocity": 127
        },
        {
          "id": "example-brahms-waltz-op39-no15-track-1-note-124",
          "pitch": 72,
          "start": 172,
          "duration": 4,
          "velocity": 127
        },
        {
          "id": "example-brahms-waltz-op39-no15-track-1-note-125",
          "pitch": 67,
          "start": 172,
          "duration": 4,
          "velocity": 127
        },
        {
          "id": "example-brahms-waltz-op39-no15-track-1-note-126",
          "pitch": 74,
          "start": 176,
          "duration": 4,
          "velocity": 127
        },
        {
          "id": "example-brahms-waltz-op39-no15-track-1-note-127",
          "pitch": 71,
          "start": 176,
          "duration": 4,
          "velocity": 127
        },
        {
          "id": "example-brahms-waltz-op39-no15-track-1-note-128",
          "pitch": 65,
          "start": 176,
          "duration": 4,
          "velocity": 127
        },
        {
          "id": "example-brahms-waltz-op39-no15-track-1-note-129",
          "pitch": 75,
          "start": 180,
          "duration": 6,
          "velocity": 127
        },
        {
          "id": "example-brahms-waltz-op39-no15-track-1-note-130",
          "pitch": 72,
          "start": 180,
          "duration": 6,
          "velocity": 127
        },
        {
          "id": "example-brahms-waltz-op39-no15-track-1-note-131",
          "pitch": 67,
          "start": 180,
          "duration": 6,
          "velocity": 127
        },
        {
          "id": "example-brahms-waltz-op39-no15-track-1-note-132",
          "pitch": 72,
          "start": 186,
          "duration": 2,
          "velocity": 127
        },
        {
          "id": "example-brahms-waltz-op39-no15-track-1-note-133",
          "pitch": 67,
          "start": 186,
          "duration": 2,
          "velocity": 127
        },
        {
          "id": "example-brahms-waltz-op39-no15-track-1-note-134",
          "pitch": 63,
          "start": 186,
          "duration": 2,
          "velocity": 127
        },
        {
          "id": "example-brahms-waltz-op39-no15-track-1-note-135",
          "pitch": 72,
          "start": 188,
          "duration": 2,
          "velocity": 127
        },
        {
          "id": "example-brahms-waltz-op39-no15-track-1-note-136",
          "pitch": 67,
          "start": 188,
          "duration": 2,
          "velocity": 127
        },
        {
          "id": "example-brahms-waltz-op39-no15-track-1-note-137",
          "pitch": 63,
          "start": 188,
          "duration": 2,
          "velocity": 127
        },
        {
          "id": "example-brahms-waltz-op39-no15-track-1-note-138",
          "pitch": 75,
          "start": 190,
          "duration": 2,
          "velocity": 127
        },
        {
          "id": "example-brahms-waltz-op39-no15-track-1-note-139",
          "pitch": 75,
          "start": 192,
          "duration": 6,
          "velocity": 127
        },
        {
          "id": "example-brahms-waltz-op39-no15-track-1-note-140",
          "pitch": 73,
          "start": 192,
          "duration": 6,
          "velocity": 127
        },
        {
          "id": "example-brahms-waltz-op39-no15-track-1-note-141",
          "pitch": 67,
          "start": 192,
          "duration": 6,
          "velocity": 127
        },
        {
          "id": "example-brahms-waltz-op39-no15-track-1-note-142",
          "pitch": 63,
          "start": 192,
          "duration": 6,
          "velocity": 127
        },
        {
          "id": "example-brahms-waltz-op39-no15-track-1-note-143",
          "pitch": 70,
          "start": 192,
          "duration": 6,
          "velocity": 127
        },
        {
          "id": "example-brahms-waltz-op39-no15-track-1-note-144",
          "pitch": 70,
          "start": 198,
          "duration": 2,
          "velocity": 127
        },
        {
          "id": "example-brahms-waltz-op39-no15-track-1-note-145",
          "pitch": 67,
          "start": 198,
          "duration": 2,
          "velocity": 127
        },
        {
          "id": "example-brahms-waltz-op39-no15-track-1-note-146",
          "pitch": 63,
          "start": 198,
          "duration": 2,
          "velocity": 127
        },
        {
          "id": "example-brahms-waltz-op39-no15-track-1-note-147",
          "pitch": 70,
          "start": 200,
          "duration": 2,
          "velocity": 127
        },
        {
          "id": "example-brahms-waltz-op39-no15-track-1-note-148",
          "pitch": 67,
          "start": 200,
          "duration": 2,
          "velocity": 127
        },
        {
          "id": "example-brahms-waltz-op39-no15-track-1-note-149",
          "pitch": 63,
          "start": 200,
          "duration": 2,
          "velocity": 127
        },
        {
          "id": "example-brahms-waltz-op39-no15-track-1-note-150",
          "pitch": 75,
          "start": 202,
          "duration": 2,
          "velocity": 127
        },
        {
          "id": "example-brahms-waltz-op39-no15-track-1-note-151",
          "pitch": 73,
          "start": 202,
          "duration": 2,
          "velocity": 127
        },
        {
          "id": "example-brahms-waltz-op39-no15-track-1-note-152",
          "pitch": 75,
          "start": 204,
          "duration": 6,
          "velocity": 127
        },
        {
          "id": "example-brahms-waltz-op39-no15-track-1-note-153",
          "pitch": 72,
          "start": 204,
          "duration": 6,
          "velocity": 127
        },
        {
          "id": "example-brahms-waltz-op39-no15-track-1-note-154",
          "pitch": 63,
          "start": 204,
          "duration": 6,
          "velocity": 127
        },
        {
          "id": "example-brahms-waltz-op39-no15-track-1-note-155",
          "pitch": 68,
          "start": 204,
          "duration": 6,
          "velocity": 127
        },
        {
          "id": "example-brahms-waltz-op39-no15-track-1-note-156",
          "pitch": 72,
          "start": 210,
          "duration": 2,
          "velocity": 127
        },
        {
          "id": "example-brahms-waltz-op39-no15-track-1-note-157",
          "pitch": 68,
          "start": 210,
          "duration": 2,
          "velocity": 127
        },
        {
          "id": "example-brahms-waltz-op39-no15-track-1-note-158",
          "pitch": 72,
          "start": 212,
          "duration": 2,
          "velocity": 127
        },
        {
          "id": "example-brahms-waltz-op39-no15-track-1-note-159",
          "pitch": 68,
          "start": 212,
          "duration": 2,
          "velocity": 127
        },
        {
          "id": "example-brahms-waltz-op39-no15-track-1-note-160",
          "pitch": 75,
          "start": 214,
          "duration": 2,
          "velocity": 127
        },
        {
          "id": "example-brahms-waltz-op39-no15-track-1-note-161",
          "pitch": 80,
          "start": 216,
          "duration": 6,
          "velocity": 127
        },
        {
          "id": "example-brahms-waltz-op39-no15-track-1-note-162",
          "pitch": 78,
          "start": 216,
          "duration": 6,
          "velocity": 127
        },
        {
          "id": "example-brahms-waltz-op39-no15-track-1-note-163",
          "pitch": 72,
          "start": 216,
          "duration": 6,
          "velocity": 127
        },
        {
          "id": "example-brahms-waltz-op39-no15-track-1-note-164",
          "pitch": 68,
          "start": 216,
          "duration": 6,
          "velocity": 127
        },
        {
          "id": "example-brahms-waltz-op39-no15-track-1-note-165",
          "pitch": 75,
          "start": 216,
          "duration": 6,
          "velocity": 127
        },
        {
          "id": "example-brahms-waltz-op39-no15-track-1-note-166",
          "pitch": 75,
          "start": 222,
          "duration": 2,
          "velocity": 127
        },
        {
          "id": "example-brahms-waltz-op39-no15-track-1-note-167",
          "pitch": 72,
          "start": 222,
          "duration": 2,
          "velocity": 127
        },
        {
          "id": "example-brahms-waltz-op39-no15-track-1-note-168",
          "pitch": 68,
          "start": 222,
          "duration": 2,
          "velocity": 127
        },
        {
          "id": "example-brahms-waltz-op39-no15-track-1-note-169",
          "pitch": 75,
          "start": 224,
          "duration": 2,
          "velocity": 127
        },
        {
          "id": "example-brahms-waltz-op39-no15-track-1-note-170",
          "pitch": 72,
          "start": 224,
          "duration": 2,
          "velocity": 127
        },
        {
          "id": "example-brahms-waltz-op39-no15-track-1-note-171",
          "pitch": 68,
          "start": 224,
          "duration": 2,
          "velocity": 127
        },
        {
          "id": "example-brahms-waltz-op39-no15-track-1-note-172",
          "pitch": 80,
          "start": 226,
          "duration": 2,
          "velocity": 127
        },
        {
          "id": "example-brahms-waltz-op39-no15-track-1-note-173",
          "pitch": 78,
          "start": 226,
          "duration": 2,
          "velocity": 127
        },
        {
          "id": "example-brahms-waltz-op39-no15-track-1-note-174",
          "pitch": 80,
          "start": 228,
          "duration": 6,
          "velocity": 127
        },
        {
          "id": "example-brahms-waltz-op39-no15-track-1-note-175",
          "pitch": 77,
          "start": 228,
          "duration": 6,
          "velocity": 127
        },
        {
          "id": "example-brahms-waltz-op39-no15-track-1-note-176",
          "pitch": 68,
          "start": 228,
          "duration": 6,
          "velocity": 127
        },
        {
          "id": "example-brahms-waltz-op39-no15-track-1-note-177",
          "pitch": 73,
          "start": 228,
          "duration": 6,
          "velocity": 127
        },
        {
          "id": "example-brahms-waltz-op39-no15-track-1-note-178",
          "pitch": 77,
          "start": 234,
          "duration": 2,
          "velocity": 127
        },
        {
          "id": "example-brahms-waltz-op39-no15-track-1-note-179",
          "pitch": 73,
          "start": 234,
          "duration": 2,
          "velocity": 127
        },
        {
          "id": "example-brahms-waltz-op39-no15-track-1-note-180",
          "pitch": 68,
          "start": 234,
          "duration": 2,
          "velocity": 127
        },
        {
          "id": "example-brahms-waltz-op39-no15-track-1-note-181",
          "pitch": 77,
          "start": 236,
          "duration": 2,
          "velocity": 127
        },
        {
          "id": "example-brahms-waltz-op39-no15-track-1-note-182",
          "pitch": 73,
          "start": 236,
          "duration": 2,
          "velocity": 127
        },
        {
          "id": "example-brahms-waltz-op39-no15-track-1-note-183",
          "pitch": 68,
          "start": 236,
          "duration": 2,
          "velocity": 127
        },
        {
          "id": "example-brahms-waltz-op39-no15-track-1-note-184",
          "pitch": 80,
          "start": 238,
          "duration": 2,
          "velocity": 127
        },
        {
          "id": "example-brahms-waltz-op39-no15-track-1-note-185",
          "pitch": 82,
          "start": 240,
          "duration": 6,
          "velocity": 127
        },
        {
          "id": "example-brahms-waltz-op39-no15-track-1-note-186",
          "pitch": 77,
          "start": 240,
          "duration": 6,
          "velocity": 127
        },
        {
          "id": "example-brahms-waltz-op39-no15-track-1-note-187",
          "pitch": 70,
          "start": 240,
          "duration": 6,
          "velocity": 127
        },
        {
          "id": "example-brahms-waltz-op39-no15-track-1-note-188",
          "pitch": 68,
          "start": 240,
          "duration": 6,
          "velocity": 127
        },
        {
          "id": "example-brahms-waltz-op39-no15-track-1-note-189",
          "pitch": 74,
          "start": 240,
          "duration": 6,
          "velocity": 127
        },
        {
          "id": "example-brahms-waltz-op39-no15-track-1-note-190",
          "pitch": 77,
          "start": 246,
          "duration": 2,
          "velocity": 127
        },
        {
          "id": "example-brahms-waltz-op39-no15-track-1-note-191",
          "pitch": 74,
          "start": 246,
          "duration": 2,
          "velocity": 127
        },
        {
          "id": "example-brahms-waltz-op39-no15-track-1-note-192",
          "pitch": 70,
          "start": 246,
          "duration": 2,
          "velocity": 127
        },
        {
          "id": "example-brahms-waltz-op39-no15-track-1-note-193",
          "pitch": 77,
          "start": 248,
          "duration": 2,
          "velocity": 127
        },
        {
          "id": "example-brahms-waltz-op39-no15-track-1-note-194",
          "pitch": 74,
          "start": 248,
          "duration": 2,
          "velocity": 127
        },
        {
          "id": "example-brahms-waltz-op39-no15-track-1-note-195",
          "pitch": 70,
          "start": 248,
          "duration": 2,
          "velocity": 127
        },
        {
          "id": "example-brahms-waltz-op39-no15-track-1-note-196",
          "pitch": 80,
          "start": 250,
          "duration": 2,
          "velocity": 127
        },
        {
          "id": "example-brahms-waltz-op39-no15-track-1-note-197",
          "pitch": 80,
          "start": 252,
          "duration": 2,
          "velocity": 127
        },
        {
          "id": "example-brahms-waltz-op39-no15-track-1-note-198",
          "pitch": 73,
          "start": 252,
          "duration": 4,
          "velocity": 127
        },
        {
          "id": "example-brahms-waltz-op39-no15-track-1-note-199",
          "pitch": 70,
          "start": 252,
          "duration": 4,
          "velocity": 127
        },
        {
          "id": "example-brahms-waltz-op39-no15-track-1-note-200",
          "pitch": 79,
          "start": 254,
          "duration": 2,
          "velocity": 127
        },
        {
          "id": "example-brahms-waltz-op39-no15-track-1-note-201",
          "pitch": 77,
          "start": 256,
          "duration": 4,
          "velocity": 127
        },
        {
          "id": "example-brahms-waltz-op39-no15-track-1-note-202",
          "pitch": 73,
          "start": 256,
          "duration": 4,
          "velocity": 127
        },
        {
          "id": "example-brahms-waltz-op39-no15-track-1-note-203",
          "pitch": 68,
          "start": 256,
          "duration": 4,
          "velocity": 127
        },
        {
          "id": "example-brahms-waltz-op39-no15-track-1-note-204",
          "pitch": 75,
          "start": 260,
          "duration": 4,
          "velocity": 127
        },
        {
          "id": "example-brahms-waltz-op39-no15-track-1-note-205",
          "pitch": 73,
          "start": 260,
          "duration": 4,
          "velocity": 127
        },
        {
          "id": "example-brahms-waltz-op39-no15-track-1-note-206",
          "pitch": 67,
          "start": 260,
          "duration": 4,
          "velocity": 127
        },
        {
          "id": "example-brahms-waltz-op39-no15-track-1-note-207",
          "pitch": 72,
          "start": 264,
          "duration": 6,
          "velocity": 127
        },
        {
          "id": "example-brahms-waltz-op39-no15-track-1-note-208",
          "pitch": 63,
          "start": 264,
          "duration": 6,
          "velocity": 127
        },
        {
          "id": "example-brahms-waltz-op39-no15-track-1-note-209",
          "pitch": 68,
          "start": 270,
          "duration": 2,
          "velocity": 127
        },
        {
          "id": "example-brahms-waltz-op39-no15-track-1-note-210",
          "pitch": 60,
          "start": 270,
          "duration": 2,
          "velocity": 127
        },
        {
          "id": "example-brahms-waltz-op39-no15-track-1-note-211",
          "pitch": 68,
          "start": 272,
          "duration": 2,
          "velocity": 127
        },
        {
          "id": "example-brahms-waltz-op39-no15-track-1-note-212",
          "pitch": 60,
          "start": 272,
          "duration": 2,
          "velocity": 127
        },
        {
          "id": "example-brahms-waltz-op39-no15-track-1-note-213",
          "pitch": 72,
          "start": 274,
          "duration": 2,
          "velocity": 127
        },
        {
          "id": "example-brahms-waltz-op39-no15-track-1-note-214",
          "pitch": 63,
          "start": 274,
          "duration": 2,
          "velocity": 127
        },
        {
          "id": "example-brahms-waltz-op39-no15-track-1-note-215",
          "pitch": 72,
          "start": 276,
          "duration": 6,
          "velocity": 127
        },
        {
          "id": "example-brahms-waltz-op39-no15-track-1-note-216",
          "pitch": 63,
          "start": 276,
          "duration": 6,
          "velocity": 127
        },
        {
          "id": "example-brahms-waltz-op39-no15-track-1-note-217",
          "pitch": 68,
          "start": 282,
          "duration": 2,
          "velocity": 127
        },
        {
          "id": "example-brahms-waltz-op39-no15-track-1-note-218",
          "pitch": 60,
          "start": 282,
          "duration": 2,
          "velocity": 127
        },
        {
          "id": "example-brahms-waltz-op39-no15-track-1-note-219",
          "pitch": 68,
          "start": 284,
          "duration": 2,
          "velocity": 127
        },
        {
          "id": "example-brahms-waltz-op39-no15-track-1-note-220",
          "pitch": 60,
          "start": 284,
          "duration": 2,
          "velocity": 127
        },
        {
          "id": "example-brahms-waltz-op39-no15-track-1-note-221",
          "pitch": 72,
          "start": 286,
          "duration": 2,
          "velocity": 127
        },
        {
          "id": "example-brahms-waltz-op39-no15-track-1-note-222",
          "pitch": 63,
          "start": 286,
          "duration": 2,
          "velocity": 127
        },
        {
          "id": "example-brahms-waltz-op39-no15-track-1-note-223",
          "pitch": 73,
          "start": 288,
          "duration": 2,
          "velocity": 127
        },
        {
          "id": "example-brahms-waltz-op39-no15-track-1-note-224",
          "pitch": 75,
          "start": 290,
          "duration": 1,
          "velocity": 127
        },
        {
          "id": "example-brahms-waltz-op39-no15-track-1-note-225",
          "pitch": 65,
          "start": 288,
          "duration": 4,
          "velocity": 127
        },
        {
          "id": "example-brahms-waltz-op39-no15-track-1-note-226",
          "pitch": 68,
          "start": 288,
          "duration": 4,
          "velocity": 127
        },
        {
          "id": "example-brahms-waltz-op39-no15-track-1-note-227",
          "pitch": 73,
          "start": 291,
          "duration": 1,
          "velocity": 127
        },
        {
          "id": "example-brahms-waltz-op39-no15-track-1-note-228",
          "pitch": 72,
          "start": 292,
          "duration": 4,
          "velocity": 127
        },
        {
          "id": "example-brahms-waltz-op39-no15-track-1-note-229",
          "pitch": 68,
          "start": 292,
          "duration": 4,
          "velocity": 127
        },
        {
          "id": "example-brahms-waltz-op39-no15-track-1-note-230",
          "pitch": 63,
          "start": 292,
          "duration": 4,
          "velocity": 127
        },
        {
          "id": "example-brahms-waltz-op39-no15-track-1-note-231",
          "pitch": 70,
          "start": 296,
          "duration": 4,
          "velocity": 127
        },
        {
          "id": "example-brahms-waltz-op39-no15-track-1-note-232",
          "pitch": 68,
          "start": 296,
          "duration": 4,
          "velocity": 127
        },
        {
          "id": "example-brahms-waltz-op39-no15-track-1-note-233",
          "pitch": 61,
          "start": 296,
          "duration": 4,
          "velocity": 127
        },
        {
          "id": "example-brahms-waltz-op39-no15-track-1-note-234",
          "pitch": 72,
          "start": 300,
          "duration": 6,
          "velocity": 127
        },
        {
          "id": "example-brahms-waltz-op39-no15-track-1-note-235",
          "pitch": 68,
          "start": 300,
          "duration": 6,
          "velocity": 127
        },
        {
          "id": "example-brahms-waltz-op39-no15-track-1-note-236",
          "pitch": 63,
          "start": 300,
          "duration": 6,
          "velocity": 127
        },
        {
          "id": "example-brahms-waltz-op39-no15-track-1-note-237",
          "pitch": 68,
          "start": 306,
          "duration": 2,
          "velocity": 127
        },
        {
          "id": "example-brahms-waltz-op39-no15-track-1-note-238",
          "pitch": 68,
          "start": 308,
          "duration": 2,
          "velocity": 127
        },
        {
          "id": "example-brahms-waltz-op39-no15-track-1-note-239",
          "pitch": 75,
          "start": 310,
          "duration": 2,
          "velocity": 127
        },
        {
          "id": "example-brahms-waltz-op39-no15-track-1-note-240",
          "pitch": 72,
          "start": 310,
          "duration": 2,
          "velocity": 127
        },
        {
          "id": "example-brahms-waltz-op39-no15-track-1-note-241",
          "pitch": 77,
          "start": 312,
          "duration": 6,
          "velocity": 127
        },
        {
          "id": "example-brahms-waltz-op39-no15-track-1-note-242",
          "pitch": 72,
          "start": 312,
          "duration": 6,
          "velocity": 127
        },
        {
          "id": "example-brahms-waltz-op39-no15-track-1-note-243",
          "pitch": 68,
          "start": 312,
          "duration": 6,
          "velocity": 127
        },
        {
          "id": "example-brahms-waltz-op39-no15-track-1-note-244",
          "pitch": 72,
          "start": 318,
          "duration": 2,
          "velocity": 127
        },
        {
          "id": "example-brahms-waltz-op39-no15-track-1-note-245",
          "pitch": 68,
          "start": 318,
          "duration": 2,
          "velocity": 127
        },
        {
          "id": "example-brahms-waltz-op39-no15-track-1-note-246",
          "pitch": 72,
          "start": 320,
          "duration": 2,
          "velocity": 127
        },
        {
          "id": "example-brahms-waltz-op39-no15-track-1-note-247",
          "pitch": 68,
          "start": 320,
          "duration": 2,
          "velocity": 127
        },
        {
          "id": "example-brahms-waltz-op39-no15-track-1-note-248",
          "pitch": 75,
          "start": 322,
          "duration": 2,
          "velocity": 127
        },
        {
          "id": "example-brahms-waltz-op39-no15-track-1-note-249",
          "pitch": 77,
          "start": 324,
          "duration": 6,
          "velocity": 127
        },
        {
          "id": "example-brahms-waltz-op39-no15-track-1-note-250",
          "pitch": 72,
          "start": 324,
          "duration": 6,
          "velocity": 127
        },
        {
          "id": "example-brahms-waltz-op39-no15-track-1-note-251",
          "pitch": 68,
          "start": 324,
          "duration": 6,
          "velocity": 127
        },
        {
          "id": "example-brahms-waltz-op39-no15-track-1-note-252",
          "pitch": 72,
          "start": 330,
          "duration": 2,
          "velocity": 127
        },
        {
          "id": "example-brahms-waltz-op39-no15-track-1-note-253",
          "pitch": 68,
          "start": 330,
          "duration": 2,
          "velocity": 127
        },
        {
          "id": "example-brahms-waltz-op39-no15-track-1-note-254",
          "pitch": 72,
          "start": 332,
          "duration": 2,
          "velocity": 127
        },
        {
          "id": "example-brahms-waltz-op39-no15-track-1-note-255",
          "pitch": 68,
          "start": 332,
          "duration": 2,
          "velocity": 127
        },
        {
          "id": "example-brahms-waltz-op39-no15-track-1-note-256",
          "pitch": 75,
          "start": 334,
          "duration": 2,
          "velocity": 127
        },
        {
          "id": "example-brahms-waltz-op39-no15-track-1-note-257",
          "pitch": 80,
          "start": 336,
          "duration": 2,
          "velocity": 127
        },
        {
          "id": "example-brahms-waltz-op39-no15-track-1-note-258",
          "pitch": 68,
          "start": 336,
          "duration": 4,
          "velocity": 127
        },
        {
          "id": "example-brahms-waltz-op39-no15-track-1-note-259",
          "pitch": 75,
          "start": 338,
          "duration": 2,
          "velocity": 127
        },
        {
          "id": "example-brahms-waltz-op39-no15-track-1-note-260",
          "pitch": 73,
          "start": 340,
          "duration": 4,
          "velocity": 127
        },
        {
          "id": "example-brahms-waltz-op39-no15-track-1-note-261",
          "pitch": 67,
          "start": 340,
          "duration": 4,
          "velocity": 127
        },
        {
          "id": "example-brahms-waltz-op39-no15-track-1-note-262",
          "pitch": 70,
          "start": 344,
          "duration": 4,
          "velocity": 127
        },
        {
          "id": "example-brahms-waltz-op39-no15-track-1-note-263",
          "pitch": 63,
          "start": 344,
          "duration": 4,
          "velocity": 127
        },
        {
          "id": "example-brahms-waltz-op39-no15-track-1-note-264",
          "pitch": 61,
          "start": 344,
          "duration": 4,
          "velocity": 127
        },
        {
          "id": "example-brahms-waltz-op39-no15-track-1-note-265",
          "pitch": 68,
          "start": 348,
          "duration": 4,
          "velocity": 127
        },
        {
          "id": "example-brahms-waltz-op39-no15-track-1-note-266",
          "pitch": 63,
          "start": 348,
          "duration": 4,
          "velocity": 127
        },
        {
          "id": "example-brahms-waltz-op39-no15-track-1-note-267",
          "pitch": 60,
          "start": 348,
          "duration": 4,
          "velocity": 127
        },
        {
          "id": "example-brahms-waltz-op39-no15-track-1-note-268",
          "pitch": 72,
          "start": 354,
          "duration": 2,
          "velocity": 127
        },
        {
          "id": "example-brahms-waltz-op39-no15-track-1-note-269",
          "pitch": 68,
          "start": 354,
          "duration": 2,
          "velocity": 127
        },
        {
          "id": "example-brahms-waltz-op39-no15-track-1-note-270",
          "pitch": 63,
          "start": 354,
          "duration": 2,
          "velocity": 127
        },
        {
          "id": "example-brahms-waltz-op39-no15-track-1-note-271",
          "pitch": 72,
          "start": 356,
          "duration": 2,
          "velocity": 127
        },
        {
          "id": "example-brahms-waltz-op39-no15-track-1-note-272",
          "pitch": 68,
          "start": 356,
          "duration": 2,
          "velocity": 127
        },
        {
          "id": "example-brahms-waltz-op39-no15-track-1-note-273",
          "pitch": 63,
          "start": 356,
          "duration": 2,
          "velocity": 127
        },
        {
          "id": "example-brahms-waltz-op39-no15-track-1-note-274",
          "pitch": 75,
          "start": 358,
          "duration": 2,
          "velocity": 127
        },
        {
          "id": "example-brahms-waltz-op39-no15-track-1-note-275",
          "pitch": 75,
          "start": 360,
          "duration": 6,
          "velocity": 127
        },
        {
          "id": "example-brahms-waltz-op39-no15-track-1-note-276",
          "pitch": 73,
          "start": 360,
          "duration": 6,
          "velocity": 127
        },
        {
          "id": "example-brahms-waltz-op39-no15-track-1-note-277",
          "pitch": 67,
          "start": 360,
          "duration": 6,
          "velocity": 127
        },
        {
          "id": "example-brahms-waltz-op39-no15-track-1-note-278",
          "pitch": 63,
          "start": 360,
          "duration": 6,
          "velocity": 127
        },
        {
          "id": "example-brahms-waltz-op39-no15-track-1-note-279",
          "pitch": 70,
          "start": 360,
          "duration": 6,
          "velocity": 127
        },
        {
          "id": "example-brahms-waltz-op39-no15-track-1-note-280",
          "pitch": 70,
          "start": 366,
          "duration": 2,
          "velocity": 127
        },
        {
          "id": "example-brahms-waltz-op39-no15-track-1-note-281",
          "pitch": 67,
          "start": 366,
          "duration": 2,
          "velocity": 127
        },
        {
          "id": "example-brahms-waltz-op39-no15-track-1-note-282",
          "pitch": 63,
          "start": 366,
          "duration": 2,
          "velocity": 127
        },
        {
          "id": "example-brahms-waltz-op39-no15-track-1-note-283",
          "pitch": 70,
          "start": 368,
          "duration": 2,
          "velocity": 127
        },
        {
          "id": "example-brahms-waltz-op39-no15-track-1-note-284",
          "pitch": 67,
          "start": 368,
          "duration": 2,
          "velocity": 127
        },
        {
          "id": "example-brahms-waltz-op39-no15-track-1-note-285",
          "pitch": 63,
          "start": 368,
          "duration": 2,
          "velocity": 127
        },
        {
          "id": "example-brahms-waltz-op39-no15-track-1-note-286",
          "pitch": 75,
          "start": 370,
          "duration": 2,
          "velocity": 127
        },
        {
          "id": "example-brahms-waltz-op39-no15-track-1-note-287",
          "pitch": 73,
          "start": 370,
          "duration": 2,
          "velocity": 127
        },
        {
          "id": "example-brahms-waltz-op39-no15-track-1-note-288",
          "pitch": 75,
          "start": 372,
          "duration": 6,
          "velocity": 127
        },
        {
          "id": "example-brahms-waltz-op39-no15-track-1-note-289",
          "pitch": 72,
          "start": 372,
          "duration": 6,
          "velocity": 127
        },
        {
          "id": "example-brahms-waltz-op39-no15-track-1-note-290",
          "pitch": 63,
          "start": 372,
          "duration": 6,
          "velocity": 127
        },
        {
          "id": "example-brahms-waltz-op39-no15-track-1-note-291",
          "pitch": 68,
          "start": 372,
          "duration": 6,
          "velocity": 127
        },
        {
          "id": "example-brahms-waltz-op39-no15-track-1-note-292",
          "pitch": 72,
          "start": 378,
          "duration": 2,
          "velocity": 127
        },
        {
          "id": "example-brahms-waltz-op39-no15-track-1-note-293",
          "pitch": 68,
          "start": 378,
          "duration": 2,
          "velocity": 127
        },
        {
          "id": "example-brahms-waltz-op39-no15-track-1-note-294",
          "pitch": 72,
          "start": 380,
          "duration": 2,
          "velocity": 127
        },
        {
          "id": "example-brahms-waltz-op39-no15-track-1-note-295",
          "pitch": 68,
          "start": 380,
          "duration": 2,
          "velocity": 127
        },
        {
          "id": "example-brahms-waltz-op39-no15-track-1-note-296",
          "pitch": 75,
          "start": 382,
          "duration": 2,
          "velocity": 127
        },
        {
          "id": "example-brahms-waltz-op39-no15-track-1-note-297",
          "pitch": 80,
          "start": 384,
          "duration": 6,
          "velocity": 127
        },
        {
          "id": "example-brahms-waltz-op39-no15-track-1-note-298",
          "pitch": 78,
          "start": 384,
          "duration": 6,
          "velocity": 127
        },
        {
          "id": "example-brahms-waltz-op39-no15-track-1-note-299",
          "pitch": 72,
          "start": 384,
          "duration": 6,
          "velocity": 127
        },
        {
          "id": "example-brahms-waltz-op39-no15-track-1-note-300",
          "pitch": 68,
          "start": 384,
          "duration": 6,
          "velocity": 127
        },
        {
          "id": "example-brahms-waltz-op39-no15-track-1-note-301",
          "pitch": 75,
          "start": 384,
          "duration": 6,
          "velocity": 127
        },
        {
          "id": "example-brahms-waltz-op39-no15-track-1-note-302",
          "pitch": 75,
          "start": 390,
          "duration": 2,
          "velocity": 127
        },
        {
          "id": "example-brahms-waltz-op39-no15-track-1-note-303",
          "pitch": 72,
          "start": 390,
          "duration": 2,
          "velocity": 127
        },
        {
          "id": "example-brahms-waltz-op39-no15-track-1-note-304",
          "pitch": 68,
          "start": 390,
          "duration": 2,
          "velocity": 127
        },
        {
          "id": "example-brahms-waltz-op39-no15-track-1-note-305",
          "pitch": 75,
          "start": 392,
          "duration": 2,
          "velocity": 127
        },
        {
          "id": "example-brahms-waltz-op39-no15-track-1-note-306",
          "pitch": 72,
          "start": 392,
          "duration": 2,
          "velocity": 127
        },
        {
          "id": "example-brahms-waltz-op39-no15-track-1-note-307",
          "pitch": 68,
          "start": 392,
          "duration": 2,
          "velocity": 127
        },
        {
          "id": "example-brahms-waltz-op39-no15-track-1-note-308",
          "pitch": 80,
          "start": 394,
          "duration": 2,
          "velocity": 127
        },
        {
          "id": "example-brahms-waltz-op39-no15-track-1-note-309",
          "pitch": 78,
          "start": 394,
          "duration": 2,
          "velocity": 127
        },
        {
          "id": "example-brahms-waltz-op39-no15-track-1-note-310",
          "pitch": 80,
          "start": 396,
          "duration": 6,
          "velocity": 127
        },
        {
          "id": "example-brahms-waltz-op39-no15-track-1-note-311",
          "pitch": 77,
          "start": 396,
          "duration": 6,
          "velocity": 127
        },
        {
          "id": "example-brahms-waltz-op39-no15-track-1-note-312",
          "pitch": 68,
          "start": 396,
          "duration": 6,
          "velocity": 127
        },
        {
          "id": "example-brahms-waltz-op39-no15-track-1-note-313",
          "pitch": 73,
          "start": 396,
          "duration": 6,
          "velocity": 127
        },
        {
          "id": "example-brahms-waltz-op39-no15-track-1-note-314",
          "pitch": 77,
          "start": 402,
          "duration": 2,
          "velocity": 127
        },
        {
          "id": "example-brahms-waltz-op39-no15-track-1-note-315",
          "pitch": 73,
          "start": 402,
          "duration": 2,
          "velocity": 127
        },
        {
          "id": "example-brahms-waltz-op39-no15-track-1-note-316",
          "pitch": 68,
          "start": 402,
          "duration": 2,
          "velocity": 127
        },
        {
          "id": "example-brahms-waltz-op39-no15-track-1-note-317",
          "pitch": 77,
          "start": 404,
          "duration": 2,
          "velocity": 127
        },
        {
          "id": "example-brahms-waltz-op39-no15-track-1-note-318",
          "pitch": 73,
          "start": 404,
          "duration": 2,
          "velocity": 127
        },
        {
          "id": "example-brahms-waltz-op39-no15-track-1-note-319",
          "pitch": 68,
          "start": 404,
          "duration": 2,
          "velocity": 127
        },
        {
          "id": "example-brahms-waltz-op39-no15-track-1-note-320",
          "pitch": 80,
          "start": 406,
          "duration": 2,
          "velocity": 127
        },
        {
          "id": "example-brahms-waltz-op39-no15-track-1-note-321",
          "pitch": 82,
          "start": 408,
          "duration": 6,
          "velocity": 127
        },
        {
          "id": "example-brahms-waltz-op39-no15-track-1-note-322",
          "pitch": 77,
          "start": 408,
          "duration": 6,
          "velocity": 127
        },
        {
          "id": "example-brahms-waltz-op39-no15-track-1-note-323",
          "pitch": 70,
          "start": 408,
          "duration": 6,
          "velocity": 127
        },
        {
          "id": "example-brahms-waltz-op39-no15-track-1-note-324",
          "pitch": 68,
          "start": 408,
          "duration": 6,
          "velocity": 127
        },
        {
          "id": "example-brahms-waltz-op39-no15-track-1-note-325",
          "pitch": 74,
          "start": 408,
          "duration": 6,
          "velocity": 127
        },
        {
          "id": "example-brahms-waltz-op39-no15-track-1-note-326",
          "pitch": 77,
          "start": 414,
          "duration": 2,
          "velocity": 127
        },
        {
          "id": "example-brahms-waltz-op39-no15-track-1-note-327",
          "pitch": 74,
          "start": 414,
          "duration": 2,
          "velocity": 127
        },
        {
          "id": "example-brahms-waltz-op39-no15-track-1-note-328",
          "pitch": 70,
          "start": 414,
          "duration": 2,
          "velocity": 127
        },
        {
          "id": "example-brahms-waltz-op39-no15-track-1-note-329",
          "pitch": 77,
          "start": 416,
          "duration": 2,
          "velocity": 127
        },
        {
          "id": "example-brahms-waltz-op39-no15-track-1-note-330",
          "pitch": 74,
          "start": 416,
          "duration": 2,
          "velocity": 127
        },
        {
          "id": "example-brahms-waltz-op39-no15-track-1-note-331",
          "pitch": 70,
          "start": 416,
          "duration": 2,
          "velocity": 127
        },
        {
          "id": "example-brahms-waltz-op39-no15-track-1-note-332",
          "pitch": 80,
          "start": 418,
          "duration": 2,
          "velocity": 127
        },
        {
          "id": "example-brahms-waltz-op39-no15-track-1-note-333",
          "pitch": 80,
          "start": 420,
          "duration": 2,
          "velocity": 127
        },
        {
          "id": "example-brahms-waltz-op39-no15-track-1-note-334",
          "pitch": 73,
          "start": 420,
          "duration": 4,
          "velocity": 127
        },
        {
          "id": "example-brahms-waltz-op39-no15-track-1-note-335",
          "pitch": 70,
          "start": 420,
          "duration": 4,
          "velocity": 127
        },
        {
          "id": "example-brahms-waltz-op39-no15-track-1-note-336",
          "pitch": 79,
          "start": 422,
          "duration": 2,
          "velocity": 127
        },
        {
          "id": "example-brahms-waltz-op39-no15-track-1-note-337",
          "pitch": 77,
          "start": 424,
          "duration": 4,
          "velocity": 127
        },
        {
          "id": "example-brahms-waltz-op39-no15-track-1-note-338",
          "pitch": 73,
          "start": 424,
          "duration": 4,
          "velocity": 127
        },
        {
          "id": "example-brahms-waltz-op39-no15-track-1-note-339",
          "pitch": 68,
          "start": 424,
          "duration": 4,
          "velocity": 127
        },
        {
          "id": "example-brahms-waltz-op39-no15-track-1-note-340",
          "pitch": 75,
          "start": 428,
          "duration": 4,
          "velocity": 127
        },
        {
          "id": "example-brahms-waltz-op39-no15-track-1-note-341",
          "pitch": 73,
          "start": 428,
          "duration": 4,
          "velocity": 127
        },
        {
          "id": "example-brahms-waltz-op39-no15-track-1-note-342",
          "pitch": 67,
          "start": 428,
          "duration": 4,
          "velocity": 127
        },
        {
          "id": "example-brahms-waltz-op39-no15-track-1-note-343",
          "pitch": 84,
          "start": 432,
          "duration": 4,
          "velocity": 127
        },
        {
          "id": "example-brahms-waltz-op39-no15-track-1-note-344",
          "pitch": 75,
          "start": 432,
          "duration": 4,
          "velocity": 127
        },
        {
          "id": "example-brahms-waltz-op39-no15-track-1-note-345",
          "pitch": 68,
          "start": 437,
          "duration": 2,
          "velocity": 127
        },
        {
          "id": "example-brahms-waltz-op39-no15-track-1-note-346",
          "pitch": 60,
          "start": 437,
          "duration": 2,
          "velocity": 127
        },
        {
          "id": "example-brahms-waltz-op39-no15-track-1-note-347",
          "pitch": 72,
          "start": 439,
          "duration": 1,
          "velocity": 127
        },
        {
          "id": "example-brahms-waltz-op39-no15-track-1-note-348",
          "pitch": 63,
          "start": 439,
          "duration": 1,
          "velocity": 127
        },
        {
          "id": "example-brahms-waltz-op39-no15-track-1-note-349",
          "pitch": 80,
          "start": 440,
          "duration": 1,
          "velocity": 127
        },
        {
          "id": "example-brahms-waltz-op39-no15-track-1-note-350",
          "pitch": 72,
          "start": 440,
          "duration": 1,
          "velocity": 127
        },
        {
          "id": "example-brahms-waltz-op39-no15-track-1-note-351",
          "pitch": 84,
          "start": 441,
          "duration": 2,
          "velocity": 127
        },
        {
          "id": "example-brahms-waltz-op39-no15-track-1-note-352",
          "pitch": 75,
          "start": 441,
          "duration": 2,
          "velocity": 127
        },
        {
          "id": "example-brahms-waltz-op39-no15-track-1-note-353",
          "pitch": 80,
          "start": 443,
          "duration": 1,
          "velocity": 127
        },
        {
          "id": "example-brahms-waltz-op39-no15-track-1-note-354",
          "pitch": 72,
          "start": 443,
          "duration": 1,
          "velocity": 127
        },
        {
          "id": "example-brahms-waltz-op39-no15-track-1-note-355",
          "pitch": 84,
          "start": 444,
          "duration": 4,
          "velocity": 127
        },
        {
          "id": "example-brahms-waltz-op39-no15-track-1-note-356",
          "pitch": 75,
          "start": 444,
          "duration": 4,
          "velocity": 127
        },
        {
          "id": "example-brahms-waltz-op39-no15-track-1-note-357",
          "pitch": 68,
          "start": 449,
          "duration": 2,
          "velocity": 127
        },
        {
          "id": "example-brahms-waltz-op39-no15-track-1-note-358",
          "pitch": 60,
          "start": 449,
          "duration": 2,
          "velocity": 127
        },
        {
          "id": "example-brahms-waltz-op39-no15-track-1-note-359",
          "pitch": 72,
          "start": 451,
          "duration": 1,
          "velocity": 127
        },
        {
          "id": "example-brahms-waltz-op39-no15-track-1-note-360",
          "pitch": 63,
          "start": 451,
          "duration": 1,
          "velocity": 127
        },
        {
          "id": "example-brahms-waltz-op39-no15-track-1-note-361",
          "pitch": 80,
          "start": 452,
          "duration": 1,
          "velocity": 127
        },
        {
          "id": "example-brahms-waltz-op39-no15-track-1-note-362",
          "pitch": 72,
          "start": 452,
          "duration": 1,
          "velocity": 127
        },
        {
          "id": "example-brahms-waltz-op39-no15-track-1-note-363",
          "pitch": 84,
          "start": 453,
          "duration": 2,
          "velocity": 127
        },
        {
          "id": "example-brahms-waltz-op39-no15-track-1-note-364",
          "pitch": 75,
          "start": 453,
          "duration": 2,
          "velocity": 127
        },
        {
          "id": "example-brahms-waltz-op39-no15-track-1-note-365",
          "pitch": 80,
          "start": 455,
          "duration": 1,
          "velocity": 127
        },
        {
          "id": "example-brahms-waltz-op39-no15-track-1-note-366",
          "pitch": 72,
          "start": 455,
          "duration": 1,
          "velocity": 127
        },
        {
          "id": "example-brahms-waltz-op39-no15-track-1-note-367",
          "pitch": 85,
          "start": 456,
          "duration": 2,
          "velocity": 127
        },
        {
          "id": "example-brahms-waltz-op39-no15-track-1-note-368",
          "pitch": 87,
          "start": 458,
          "duration": 1,
          "velocity": 127
        },
        {
          "id": "example-brahms-waltz-op39-no15-track-1-note-369",
          "pitch": 77,
          "start": 456,
          "duration": 4,
          "velocity": 127
        },
        {
          "id": "example-brahms-waltz-op39-no15-track-1-note-370",
          "pitch": 80,
          "start": 456,
          "duration": 4,
          "velocity": 127
        },
        {
          "id": "example-brahms-waltz-op39-no15-track-1-note-371",
          "pitch": 85,
          "start": 459,
          "duration": 1,
          "velocity": 127
        },
        {
          "id": "example-brahms-waltz-op39-no15-track-1-note-372",
          "pitch": 84,
          "start": 460,
          "duration": 4,
          "velocity": 127
        },
        {
          "id": "example-brahms-waltz-op39-no15-track-1-note-373",
          "pitch": 80,
          "start": 460,
          "duration": 4,
          "velocity": 127
        },
        {
          "id": "example-brahms-waltz-op39-no15-track-1-note-374",
          "pitch": 75,
          "start": 460,
          "duration": 4,
          "velocity": 127
        },
        {
          "id": "example-brahms-waltz-op39-no15-track-1-note-375",
          "pitch": 82,
          "start": 464,
          "duration": 4,
          "velocity": 127
        },
        {
          "id": "example-brahms-waltz-op39-no15-track-1-note-376",
          "pitch": 80,
          "start": 464,
          "duration": 4,
          "velocity": 127
        },
        {
          "id": "example-brahms-waltz-op39-no15-track-1-note-377",
          "pitch": 73,
          "start": 464,
          "duration": 4,
          "velocity": 127
        },
        {
          "id": "example-brahms-waltz-op39-no15-track-1-note-378",
          "pitch": 84,
          "start": 468,
          "duration": 4,
          "velocity": 127
        },
        {
          "id": "example-brahms-waltz-op39-no15-track-1-note-379",
          "pitch": 80,
          "start": 468,
          "duration": 4,
          "velocity": 127
        },
        {
          "id": "example-brahms-waltz-op39-no15-track-1-note-380",
          "pitch": 75,
          "start": 468,
          "duration": 4,
          "velocity": 127
        },
        {
          "id": "example-brahms-waltz-op39-no15-track-1-note-381",
          "pitch": 68,
          "start": 473,
          "duration": 2,
          "velocity": 127
        },
        {
          "id": "example-brahms-waltz-op39-no15-track-1-note-382",
          "pitch": 60,
          "start": 473,
          "duration": 2,
          "velocity": 127
        },
        {
          "id": "example-brahms-waltz-op39-no15-track-1-note-383",
          "pitch": 72,
          "start": 475,
          "duration": 1,
          "velocity": 127
        },
        {
          "id": "example-brahms-waltz-op39-no15-track-1-note-384",
          "pitch": 63,
          "start": 475,
          "duration": 1,
          "velocity": 127
        },
        {
          "id": "example-brahms-waltz-op39-no15-track-1-note-385",
          "pitch": 80,
          "start": 476,
          "duration": 1,
          "velocity": 127
        },
        {
          "id": "example-brahms-waltz-op39-no15-track-1-note-386",
          "pitch": 72,
          "start": 476,
          "duration": 1,
          "velocity": 127
        },
        {
          "id": "example-brahms-waltz-op39-no15-track-1-note-387",
          "pitch": 84,
          "start": 477,
          "duration": 2,
          "velocity": 127
        },
        {
          "id": "example-brahms-waltz-op39-no15-track-1-note-388",
          "pitch": 75,
          "start": 477,
          "duration": 2,
          "velocity": 127
        },
        {
          "id": "example-brahms-waltz-op39-no15-track-1-note-389",
          "pitch": 84,
          "start": 479,
          "duration": 5,
          "velocity": 127
        },
        {
          "id": "example-brahms-waltz-op39-no15-track-1-note-390",
          "pitch": 77,
          "start": 479,
          "duration": 5,
          "velocity": 127
        },
        {
          "id": "example-brahms-waltz-op39-no15-track-1-note-391",
          "pitch": 80,
          "start": 480,
          "duration": 4,
          "velocity": 127
        },
        {
          "id": "example-brahms-waltz-op39-no15-track-1-note-392",
          "pitch": 89,
          "start": 480,
          "duration": 4,
          "velocity": 127
        },
        {
          "id": "example-brahms-waltz-op39-no15-track-1-note-393",
          "pitch": 68,
          "start": 485,
          "duration": 2,
          "velocity": 127
        },
        {
          "id": "example-brahms-waltz-op39-no15-track-1-note-394",
          "pitch": 60,
          "start": 485,
          "duration": 2,
          "velocity": 127
        },
        {
          "id": "example-brahms-waltz-op39-no15-track-1-note-395",
          "pitch": 72,
          "start": 487,
          "duration": 1,
          "velocity": 127
        },
        {
          "id": "example-brahms-waltz-op39-no15-track-1-note-396",
          "pitch": 63,
          "start": 487,
          "duration": 1,
          "velocity": 127
        },
        {
          "id": "example-brahms-waltz-op39-no15-track-1-note-397",
          "pitch": 80,
          "start": 488,
          "duration": 1,
          "velocity": 127
        },
        {
          "id": "example-brahms-waltz-op39-no15-track-1-note-398",
          "pitch": 72,
          "start": 488,
          "duration": 1,
          "velocity": 127
        },
        {
          "id": "example-brahms-waltz-op39-no15-track-1-note-399",
          "pitch": 84,
          "start": 489,
          "duration": 2,
          "velocity": 127
        },
        {
          "id": "example-brahms-waltz-op39-no15-track-1-note-400",
          "pitch": 75,
          "start": 489,
          "duration": 2,
          "velocity": 127
        },
        {
          "id": "example-brahms-waltz-op39-no15-track-1-note-401",
          "pitch": 84,
          "start": 491,
          "duration": 5,
          "velocity": 127
        },
        {
          "id": "example-brahms-waltz-op39-no15-track-1-note-402",
          "pitch": 77,
          "start": 491,
          "duration": 5,
          "velocity": 127
        },
        {
          "id": "example-brahms-waltz-op39-no15-track-1-note-403",
          "pitch": 80,
          "start": 492,
          "duration": 4,
          "velocity": 127
        },
        {
          "id": "example-brahms-waltz-op39-no15-track-1-note-404",
          "pitch": 89,
          "start": 492,
          "duration": 4,
          "velocity": 127
        },
        {
          "id": "example-brahms-waltz-op39-no15-track-1-note-405",
          "pitch": 68,
          "start": 497,
          "duration": 2,
          "velocity": 127
        },
        {
          "id": "example-brahms-waltz-op39-no15-track-1-note-406",
          "pitch": 60,
          "start": 497,
          "duration": 2,
          "velocity": 127
        },
        {
          "id": "example-brahms-waltz-op39-no15-track-1-note-407",
          "pitch": 72,
          "start": 499,
          "duration": 1,
          "velocity": 127
        },
        {
          "id": "example-brahms-waltz-op39-no15-track-1-note-408",
          "pitch": 63,
          "start": 499,
          "duration": 1,
          "velocity": 127
        },
        {
          "id": "example-brahms-waltz-op39-no15-track-1-note-409",
          "pitch": 80,
          "start": 500,
          "duration": 1,
          "velocity": 127
        },
        {
          "id": "example-brahms-waltz-op39-no15-track-1-note-410",
          "pitch": 72,
          "start": 500,
          "duration": 1,
          "velocity": 127
        },
        {
          "id": "example-brahms-waltz-op39-no15-track-1-note-411",
          "pitch": 84,
          "start": 501,
          "duration": 2,
          "velocity": 127
        },
        {
          "id": "example-brahms-waltz-op39-no15-track-1-note-412",
          "pitch": 75,
          "start": 501,
          "duration": 2,
          "velocity": 127
        },
        {
          "id": "example-brahms-waltz-op39-no15-track-1-note-413",
          "pitch": 92,
          "start": 504,
          "duration": 2,
          "velocity": 127
        },
        {
          "id": "example-brahms-waltz-op39-no15-track-1-note-414",
          "pitch": 80,
          "start": 503,
          "duration": 5,
          "velocity": 127
        },
        {
          "id": "example-brahms-waltz-op39-no15-track-1-note-415",
          "pitch": 84,
          "start": 503,
          "duration": 5,
          "velocity": 127
        },
        {
          "id": "example-brahms-waltz-op39-no15-track-1-note-416",
          "pitch": 87,
          "start": 506,
          "duration": 2,
          "velocity": 127
        },
        {
          "id": "example-brahms-waltz-op39-no15-track-1-note-417",
          "pitch": 85,
          "start": 508,
          "duration": 4,
          "velocity": 127
        },
        {
          "id": "example-brahms-waltz-op39-no15-track-1-note-418",
          "pitch": 79,
          "start": 508,
          "duration": 4,
          "velocity": 127
        },
        {
          "id": "example-brahms-waltz-op39-no15-track-1-note-419",
          "pitch": 73,
          "start": 508,
          "duration": 4,
          "velocity": 127
        },
        {
          "id": "example-brahms-waltz-op39-no15-track-1-note-420",
          "pitch": 82,
          "start": 512,
          "duration": 4,
          "velocity": 127
        },
        {
          "id": "example-brahms-waltz-op39-no15-track-1-note-421",
          "pitch": 73,
          "start": 512,
          "duration": 4,
          "velocity": 127
        },
        {
          "id": "example-brahms-waltz-op39-no15-track-1-note-422",
          "pitch": 70,
          "start": 512,
          "duration": 4,
          "velocity": 127
        },
        {
          "id": "example-brahms-waltz-op39-no15-track-1-note-423",
          "pitch": 80,
          "start": 516,
          "duration": 4,
          "velocity": 127
        },
        {
          "id": "example-brahms-waltz-op39-no15-track-1-note-424",
          "pitch": 72,
          "start": 516,
          "duration": 4,
          "velocity": 127
        },
        {
          "id": "example-brahms-waltz-op39-no15-track-1-note-425",
          "pitch": 68,
          "start": 516,
          "duration": 4,
          "velocity": 127
        }
      ]
    },
    {
      "id": "example-brahms-waltz-op39-no15-track-2",
      "name": "左手圆舞",
      "color": "#2563eb",
      "program": 0,
      "volume": 82,
      "notes": [
        {
          "id": "example-brahms-waltz-op39-no15-track-2-note-1",
          "pitch": 44,
          "start": 0,
          "duration": 4,
          "velocity": 127
        },
        {
          "id": "example-brahms-waltz-op39-no15-track-2-note-2",
          "pitch": 60,
          "start": 4,
          "duration": 4,
          "velocity": 127
        },
        {
          "id": "example-brahms-waltz-op39-no15-track-2-note-3",
          "pitch": 56,
          "start": 4,
          "duration": 4,
          "velocity": 127
        },
        {
          "id": "example-brahms-waltz-op39-no15-track-2-note-4",
          "pitch": 51,
          "start": 4,
          "duration": 4,
          "velocity": 127
        },
        {
          "id": "example-brahms-waltz-op39-no15-track-2-note-5",
          "pitch": 56,
          "start": 8,
          "duration": 4,
          "velocity": 127
        },
        {
          "id": "example-brahms-waltz-op39-no15-track-2-note-6",
          "pitch": 51,
          "start": 8,
          "duration": 4,
          "velocity": 127
        },
        {
          "id": "example-brahms-waltz-op39-no15-track-2-note-7",
          "pitch": 48,
          "start": 8,
          "duration": 4,
          "velocity": 127
        },
        {
          "id": "example-brahms-waltz-op39-no15-track-2-note-8",
          "pitch": 32,
          "start": 12,
          "duration": 4,
          "velocity": 127
        },
        {
          "id": "example-brahms-waltz-op39-no15-track-2-note-9",
          "pitch": 60,
          "start": 16,
          "duration": 4,
          "velocity": 127
        },
        {
          "id": "example-brahms-waltz-op39-no15-track-2-note-10",
          "pitch": 56,
          "start": 16,
          "duration": 4,
          "velocity": 127
        },
        {
          "id": "example-brahms-waltz-op39-no15-track-2-note-11",
          "pitch": 51,
          "start": 16,
          "duration": 4,
          "velocity": 127
        },
        {
          "id": "example-brahms-waltz-op39-no15-track-2-note-12",
          "pitch": 56,
          "start": 20,
          "duration": 4,
          "velocity": 127
        },
        {
          "id": "example-brahms-waltz-op39-no15-track-2-note-13",
          "pitch": 51,
          "start": 20,
          "duration": 4,
          "velocity": 127
        },
        {
          "id": "example-brahms-waltz-op39-no15-track-2-note-14",
          "pitch": 48,
          "start": 20,
          "duration": 4,
          "velocity": 127
        },
        {
          "id": "example-brahms-waltz-op39-no15-track-2-note-15",
          "pitch": 44,
          "start": 24,
          "duration": 4,
          "velocity": 127
        },
        {
          "id": "example-brahms-waltz-op39-no15-track-2-note-16",
          "pitch": 61,
          "start": 28,
          "duration": 4,
          "velocity": 127
        },
        {
          "id": "example-brahms-waltz-op39-no15-track-2-note-17",
          "pitch": 53,
          "start": 28,
          "duration": 4,
          "velocity": 127
        },
        {
          "id": "example-brahms-waltz-op39-no15-track-2-note-18",
          "pitch": 49,
          "start": 28,
          "duration": 4,
          "velocity": 127
        },
        {
          "id": "example-brahms-waltz-op39-no15-track-2-note-19",
          "pitch": 56,
          "start": 32,
          "duration": 4,
          "velocity": 127
        },
        {
          "id": "example-brahms-waltz-op39-no15-track-2-note-20",
          "pitch": 53,
          "start": 32,
          "duration": 4,
          "velocity": 127
        },
        {
          "id": "example-brahms-waltz-op39-no15-track-2-note-21",
          "pitch": 32,
          "start": 36,
          "duration": 4,
          "velocity": 127
        },
        {
          "id": "example-brahms-waltz-op39-no15-track-2-note-22",
          "pitch": 60,
          "start": 40,
          "duration": 4,
          "velocity": 127
        },
        {
          "id": "example-brahms-waltz-op39-no15-track-2-note-23",
          "pitch": 56,
          "start": 40,
          "duration": 4,
          "velocity": 127
        },
        {
          "id": "example-brahms-waltz-op39-no15-track-2-note-24",
          "pitch": 51,
          "start": 40,
          "duration": 4,
          "velocity": 127
        },
        {
          "id": "example-brahms-waltz-op39-no15-track-2-note-25",
          "pitch": 56,
          "start": 44,
          "duration": 4,
          "velocity": 127
        },
        {
          "id": "example-brahms-waltz-op39-no15-track-2-note-26",
          "pitch": 51,
          "start": 44,
          "duration": 4,
          "velocity": 127
        },
        {
          "id": "example-brahms-waltz-op39-no15-track-2-note-27",
          "pitch": 48,
          "start": 44,
          "duration": 4,
          "velocity": 127
        },
        {
          "id": "example-brahms-waltz-op39-no15-track-2-note-28",
          "pitch": 41,
          "start": 48,
          "duration": 4,
          "velocity": 127
        },
        {
          "id": "example-brahms-waltz-op39-no15-track-2-note-29",
          "pitch": 65,
          "start": 52,
          "duration": 4,
          "velocity": 127
        },
        {
          "id": "example-brahms-waltz-op39-no15-track-2-note-30",
          "pitch": 60,
          "start": 52,
          "duration": 4,
          "velocity": 127
        },
        {
          "id": "example-brahms-waltz-op39-no15-track-2-note-31",
          "pitch": 53,
          "start": 52,
          "duration": 4,
          "velocity": 127
        },
        {
          "id": "example-brahms-waltz-op39-no15-track-2-note-32",
          "pitch": 56,
          "start": 52,
          "duration": 4,
          "velocity": 127
        },
        {
          "id": "example-brahms-waltz-op39-no15-track-2-note-33",
          "pitch": 60,
          "start": 56,
          "duration": 4,
          "velocity": 127
        },
        {
          "id": "example-brahms-waltz-op39-no15-track-2-note-34",
          "pitch": 51,
          "start": 56,
          "duration": 4,
          "velocity": 127
        },
        {
          "id": "example-brahms-waltz-op39-no15-track-2-note-35",
          "pitch": 44,
          "start": 56,
          "duration": 4,
          "velocity": 127
        },
        {
          "id": "example-brahms-waltz-op39-no15-track-2-note-36",
          "pitch": 41,
          "start": 60,
          "duration": 4,
          "velocity": 127
        },
        {
          "id": "example-brahms-waltz-op39-no15-track-2-note-37",
          "pitch": 65,
          "start": 64,
          "duration": 4,
          "velocity": 127
        },
        {
          "id": "example-brahms-waltz-op39-no15-track-2-note-38",
          "pitch": 60,
          "start": 64,
          "duration": 4,
          "velocity": 127
        },
        {
          "id": "example-brahms-waltz-op39-no15-track-2-note-39",
          "pitch": 53,
          "start": 64,
          "duration": 4,
          "velocity": 127
        },
        {
          "id": "example-brahms-waltz-op39-no15-track-2-note-40",
          "pitch": 56,
          "start": 64,
          "duration": 4,
          "velocity": 127
        },
        {
          "id": "example-brahms-waltz-op39-no15-track-2-note-41",
          "pitch": 60,
          "start": 68,
          "duration": 4,
          "velocity": 127
        },
        {
          "id": "example-brahms-waltz-op39-no15-track-2-note-42",
          "pitch": 51,
          "start": 68,
          "duration": 4,
          "velocity": 127
        },
        {
          "id": "example-brahms-waltz-op39-no15-track-2-note-43",
          "pitch": 44,
          "start": 68,
          "duration": 4,
          "velocity": 127
        },
        {
          "id": "example-brahms-waltz-op39-no15-track-2-note-44",
          "pitch": 39,
          "start": 72,
          "duration": 4,
          "velocity": 127
        },
        {
          "id": "example-brahms-waltz-op39-no15-track-2-note-45",
          "pitch": 60,
          "start": 76,
          "duration": 4,
          "velocity": 127
        },
        {
          "id": "example-brahms-waltz-op39-no15-track-2-note-46",
          "pitch": 55,
          "start": 76,
          "duration": 4,
          "velocity": 127
        },
        {
          "id": "example-brahms-waltz-op39-no15-track-2-note-47",
          "pitch": 51,
          "start": 76,
          "duration": 4,
          "velocity": 127
        },
        {
          "id": "example-brahms-waltz-op39-no15-track-2-note-48",
          "pitch": 59,
          "start": 80,
          "duration": 4,
          "velocity": 127
        },
        {
          "id": "example-brahms-waltz-op39-no15-track-2-note-49",
          "pitch": 53,
          "start": 80,
          "duration": 4,
          "velocity": 127
        },
        {
          "id": "example-brahms-waltz-op39-no15-track-2-note-50",
          "pitch": 43,
          "start": 80,
          "duration": 4,
          "velocity": 127
        },
        {
          "id": "example-brahms-waltz-op39-no15-track-2-note-51",
          "pitch": 36,
          "start": 84,
          "duration": 4,
          "velocity": 127
        },
        {
          "id": "example-brahms-waltz-op39-no15-track-2-note-52",
          "pitch": 60,
          "start": 88,
          "duration": 4,
          "velocity": 127
        },
        {
          "id": "example-brahms-waltz-op39-no15-track-2-note-53",
          "pitch": 55,
          "start": 88,
          "duration": 4,
          "velocity": 127
        },
        {
          "id": "example-brahms-waltz-op39-no15-track-2-note-54",
          "pitch": 51,
          "start": 88,
          "duration": 4,
          "velocity": 127
        },
        {
          "id": "example-brahms-waltz-op39-no15-track-2-note-55",
          "pitch": 51,
          "start": 92,
          "duration": 4,
          "velocity": 127
        },
        {
          "id": "example-brahms-waltz-op39-no15-track-2-note-56",
          "pitch": 48,
          "start": 92,
          "duration": 4,
          "velocity": 127
        },
        {
          "id": "example-brahms-waltz-op39-no15-track-2-note-57",
          "pitch": 44,
          "start": 96,
          "duration": 4,
          "velocity": 127
        },
        {
          "id": "example-brahms-waltz-op39-no15-track-2-note-58",
          "pitch": 60,
          "start": 100,
          "duration": 4,
          "velocity": 127
        },
        {
          "id": "example-brahms-waltz-op39-no15-track-2-note-59",
          "pitch": 56,
          "start": 100,
          "duration": 4,
          "velocity": 127
        },
        {
          "id": "example-brahms-waltz-op39-no15-track-2-note-60",
          "pitch": 51,
          "start": 100,
          "duration": 4,
          "velocity": 127
        },
        {
          "id": "example-brahms-waltz-op39-no15-track-2-note-61",
          "pitch": 56,
          "start": 104,
          "duration": 4,
          "velocity": 127
        },
        {
          "id": "example-brahms-waltz-op39-no15-track-2-note-62",
          "pitch": 51,
          "start": 104,
          "duration": 4,
          "velocity": 127
        },
        {
          "id": "example-brahms-waltz-op39-no15-track-2-note-63",
          "pitch": 48,
          "start": 104,
          "duration": 4,
          "velocity": 127
        },
        {
          "id": "example-brahms-waltz-op39-no15-track-2-note-64",
          "pitch": 32,
          "start": 108,
          "duration": 4,
          "velocity": 127
        },
        {
          "id": "example-brahms-waltz-op39-no15-track-2-note-65",
          "pitch": 60,
          "start": 112,
          "duration": 4,
          "velocity": 127
        },
        {
          "id": "example-brahms-waltz-op39-no15-track-2-note-66",
          "pitch": 56,
          "start": 112,
          "duration": 4,
          "velocity": 127
        },
        {
          "id": "example-brahms-waltz-op39-no15-track-2-note-67",
          "pitch": 51,
          "start": 112,
          "duration": 4,
          "velocity": 127
        },
        {
          "id": "example-brahms-waltz-op39-no15-track-2-note-68",
          "pitch": 56,
          "start": 116,
          "duration": 4,
          "velocity": 127
        },
        {
          "id": "example-brahms-waltz-op39-no15-track-2-note-69",
          "pitch": 51,
          "start": 116,
          "duration": 4,
          "velocity": 127
        },
        {
          "id": "example-brahms-waltz-op39-no15-track-2-note-70",
          "pitch": 48,
          "start": 116,
          "duration": 4,
          "velocity": 127
        },
        {
          "id": "example-brahms-waltz-op39-no15-track-2-note-71",
          "pitch": 44,
          "start": 120,
          "duration": 4,
          "velocity": 127
        },
        {
          "id": "example-brahms-waltz-op39-no15-track-2-note-72",
          "pitch": 61,
          "start": 124,
          "duration": 4,
          "velocity": 127
        },
        {
          "id": "example-brahms-waltz-op39-no15-track-2-note-73",
          "pitch": 53,
          "start": 124,
          "duration": 4,
          "velocity": 127
        },
        {
          "id": "example-brahms-waltz-op39-no15-track-2-note-74",
          "pitch": 49,
          "start": 124,
          "duration": 4,
          "velocity": 127
        },
        {
          "id": "example-brahms-waltz-op39-no15-track-2-note-75",
          "pitch": 56,
          "start": 128,
          "duration": 4,
          "velocity": 127
        },
        {
          "id": "example-brahms-waltz-op39-no15-track-2-note-76",
          "pitch": 53,
          "start": 128,
          "duration": 4,
          "velocity": 127
        },
        {
          "id": "example-brahms-waltz-op39-no15-track-2-note-77",
          "pitch": 32,
          "start": 132,
          "duration": 4,
          "velocity": 127
        },
        {
          "id": "example-brahms-waltz-op39-no15-track-2-note-78",
          "pitch": 60,
          "start": 136,
          "duration": 4,
          "velocity": 127
        },
        {
          "id": "example-brahms-waltz-op39-no15-track-2-note-79",
          "pitch": 56,
          "start": 136,
          "duration": 4,
          "velocity": 127
        },
        {
          "id": "example-brahms-waltz-op39-no15-track-2-note-80",
          "pitch": 51,
          "start": 136,
          "duration": 4,
          "velocity": 127
        },
        {
          "id": "example-brahms-waltz-op39-no15-track-2-note-81",
          "pitch": 56,
          "start": 140,
          "duration": 4,
          "velocity": 127
        },
        {
          "id": "example-brahms-waltz-op39-no15-track-2-note-82",
          "pitch": 51,
          "start": 140,
          "duration": 4,
          "velocity": 127
        },
        {
          "id": "example-brahms-waltz-op39-no15-track-2-note-83",
          "pitch": 48,
          "start": 140,
          "duration": 4,
          "velocity": 127
        },
        {
          "id": "example-brahms-waltz-op39-no15-track-2-note-84",
          "pitch": 41,
          "start": 144,
          "duration": 4,
          "velocity": 127
        },
        {
          "id": "example-brahms-waltz-op39-no15-track-2-note-85",
          "pitch": 65,
          "start": 148,
          "duration": 4,
          "velocity": 127
        },
        {
          "id": "example-brahms-waltz-op39-no15-track-2-note-86",
          "pitch": 60,
          "start": 148,
          "duration": 4,
          "velocity": 127
        },
        {
          "id": "example-brahms-waltz-op39-no15-track-2-note-87",
          "pitch": 53,
          "start": 148,
          "duration": 4,
          "velocity": 127
        },
        {
          "id": "example-brahms-waltz-op39-no15-track-2-note-88",
          "pitch": 56,
          "start": 148,
          "duration": 4,
          "velocity": 127
        },
        {
          "id": "example-brahms-waltz-op39-no15-track-2-note-89",
          "pitch": 60,
          "start": 152,
          "duration": 4,
          "velocity": 127
        },
        {
          "id": "example-brahms-waltz-op39-no15-track-2-note-90",
          "pitch": 51,
          "start": 152,
          "duration": 4,
          "velocity": 127
        },
        {
          "id": "example-brahms-waltz-op39-no15-track-2-note-91",
          "pitch": 44,
          "start": 152,
          "duration": 4,
          "velocity": 127
        },
        {
          "id": "example-brahms-waltz-op39-no15-track-2-note-92",
          "pitch": 41,
          "start": 156,
          "duration": 4,
          "velocity": 127
        },
        {
          "id": "example-brahms-waltz-op39-no15-track-2-note-93",
          "pitch": 65,
          "start": 160,
          "duration": 4,
          "velocity": 127
        },
        {
          "id": "example-brahms-waltz-op39-no15-track-2-note-94",
          "pitch": 60,
          "start": 160,
          "duration": 4,
          "velocity": 127
        },
        {
          "id": "example-brahms-waltz-op39-no15-track-2-note-95",
          "pitch": 53,
          "start": 160,
          "duration": 4,
          "velocity": 127
        },
        {
          "id": "example-brahms-waltz-op39-no15-track-2-note-96",
          "pitch": 56,
          "start": 160,
          "duration": 4,
          "velocity": 127
        },
        {
          "id": "example-brahms-waltz-op39-no15-track-2-note-97",
          "pitch": 60,
          "start": 164,
          "duration": 4,
          "velocity": 127
        },
        {
          "id": "example-brahms-waltz-op39-no15-track-2-note-98",
          "pitch": 51,
          "start": 164,
          "duration": 4,
          "velocity": 127
        },
        {
          "id": "example-brahms-waltz-op39-no15-track-2-note-99",
          "pitch": 44,
          "start": 164,
          "duration": 4,
          "velocity": 127
        },
        {
          "id": "example-brahms-waltz-op39-no15-track-2-note-100",
          "pitch": 39,
          "start": 168,
          "duration": 4,
          "velocity": 127
        },
        {
          "id": "example-brahms-waltz-op39-no15-track-2-note-101",
          "pitch": 60,
          "start": 172,
          "duration": 4,
          "velocity": 127
        },
        {
          "id": "example-brahms-waltz-op39-no15-track-2-note-102",
          "pitch": 55,
          "start": 172,
          "duration": 4,
          "velocity": 127
        },
        {
          "id": "example-brahms-waltz-op39-no15-track-2-note-103",
          "pitch": 51,
          "start": 172,
          "duration": 4,
          "velocity": 127
        },
        {
          "id": "example-brahms-waltz-op39-no15-track-2-note-104",
          "pitch": 59,
          "start": 176,
          "duration": 4,
          "velocity": 127
        },
        {
          "id": "example-brahms-waltz-op39-no15-track-2-note-105",
          "pitch": 53,
          "start": 176,
          "duration": 4,
          "velocity": 127
        },
        {
          "id": "example-brahms-waltz-op39-no15-track-2-note-106",
          "pitch": 43,
          "start": 176,
          "duration": 4,
          "velocity": 127
        },
        {
          "id": "example-brahms-waltz-op39-no15-track-2-note-107",
          "pitch": 36,
          "start": 180,
          "duration": 4,
          "velocity": 127
        },
        {
          "id": "example-brahms-waltz-op39-no15-track-2-note-108",
          "pitch": 60,
          "start": 184,
          "duration": 4,
          "velocity": 127
        },
        {
          "id": "example-brahms-waltz-op39-no15-track-2-note-109",
          "pitch": 55,
          "start": 184,
          "duration": 4,
          "velocity": 127
        },
        {
          "id": "example-brahms-waltz-op39-no15-track-2-note-110",
          "pitch": 51,
          "start": 184,
          "duration": 4,
          "velocity": 127
        },
        {
          "id": "example-brahms-waltz-op39-no15-track-2-note-111",
          "pitch": 55,
          "start": 188,
          "duration": 4,
          "velocity": 127
        },
        {
          "id": "example-brahms-waltz-op39-no15-track-2-note-112",
          "pitch": 51,
          "start": 188,
          "duration": 4,
          "velocity": 127
        },
        {
          "id": "example-brahms-waltz-op39-no15-track-2-note-113",
          "pitch": 48,
          "start": 188,
          "duration": 4,
          "velocity": 127
        },
        {
          "id": "example-brahms-waltz-op39-no15-track-2-note-114",
          "pitch": 39,
          "start": 192,
          "duration": 4,
          "velocity": 127
        },
        {
          "id": "example-brahms-waltz-op39-no15-track-2-note-115",
          "pitch": 61,
          "start": 196,
          "duration": 4,
          "velocity": 127
        },
        {
          "id": "example-brahms-waltz-op39-no15-track-2-note-116",
          "pitch": 55,
          "start": 196,
          "duration": 4,
          "velocity": 127
        },
        {
          "id": "example-brahms-waltz-op39-no15-track-2-note-117",
          "pitch": 51,
          "start": 196,
          "duration": 4,
          "velocity": 127
        },
        {
          "id": "example-brahms-waltz-op39-no15-track-2-note-118",
          "pitch": 55,
          "start": 200,
          "duration": 4,
          "velocity": 127
        },
        {
          "id": "example-brahms-waltz-op39-no15-track-2-note-119",
          "pitch": 51,
          "start": 200,
          "duration": 4,
          "velocity": 127
        },
        {
          "id": "example-brahms-waltz-op39-no15-track-2-note-120",
          "pitch": 44,
          "start": 204,
          "duration": 4,
          "velocity": 127
        },
        {
          "id": "example-brahms-waltz-op39-no15-track-2-note-121",
          "pitch": 60,
          "start": 208,
          "duration": 4,
          "velocity": 127
        },
        {
          "id": "example-brahms-waltz-op39-no15-track-2-note-122",
          "pitch": 56,
          "start": 208,
          "duration": 4,
          "velocity": 127
        },
        {
          "id": "example-brahms-waltz-op39-no15-track-2-note-123",
          "pitch": 51,
          "start": 208,
          "duration": 4,
          "velocity": 127
        },
        {
          "id": "example-brahms-waltz-op39-no15-track-2-note-124",
          "pitch": 56,
          "start": 212,
          "duration": 4,
          "velocity": 127
        },
        {
          "id": "example-brahms-waltz-op39-no15-track-2-note-125",
          "pitch": 51,
          "start": 212,
          "duration": 4,
          "velocity": 127
        },
        {
          "id": "example-brahms-waltz-op39-no15-track-2-note-126",
          "pitch": 32,
          "start": 216,
          "duration": 4,
          "velocity": 127
        },
        {
          "id": "example-brahms-waltz-op39-no15-track-2-note-127",
          "pitch": 66,
          "start": 220,
          "duration": 4,
          "velocity": 127
        },
        {
          "id": "example-brahms-waltz-op39-no15-track-2-note-128",
          "pitch": 60,
          "start": 220,
          "duration": 4,
          "velocity": 127
        },
        {
          "id": "example-brahms-waltz-op39-no15-track-2-note-129",
          "pitch": 56,
          "start": 220,
          "duration": 4,
          "velocity": 127
        },
        {
          "id": "example-brahms-waltz-op39-no15-track-2-note-130",
          "pitch": 60,
          "start": 224,
          "duration": 4,
          "velocity": 127
        },
        {
          "id": "example-brahms-waltz-op39-no15-track-2-note-131",
          "pitch": 56,
          "start": 224,
          "duration": 4,
          "velocity": 127
        },
        {
          "id": "example-brahms-waltz-op39-no15-track-2-note-132",
          "pitch": 37,
          "start": 228,
          "duration": 4,
          "velocity": 127
        },
        {
          "id": "example-brahms-waltz-op39-no15-track-2-note-133",
          "pitch": 65,
          "start": 232,
          "duration": 4,
          "velocity": 127
        },
        {
          "id": "example-brahms-waltz-op39-no15-track-2-note-134",
          "pitch": 61,
          "start": 232,
          "duration": 4,
          "velocity": 127
        },
        {
          "id": "example-brahms-waltz-op39-no15-track-2-note-135",
          "pitch": 56,
          "start": 232,
          "duration": 4,
          "velocity": 127
        },
        {
          "id": "example-brahms-waltz-op39-no15-track-2-note-136",
          "pitch": 61,
          "start": 236,
          "duration": 4,
          "velocity": 127
        },
        {
          "id": "example-brahms-waltz-op39-no15-track-2-note-137",
          "pitch": 56,
          "start": 236,
          "duration": 4,
          "velocity": 127
        },
        {
          "id": "example-brahms-waltz-op39-no15-track-2-note-138",
          "pitch": 46,
          "start": 240,
          "duration": 4,
          "velocity": 127
        },
        {
          "id": "example-brahms-waltz-op39-no15-track-2-note-139",
          "pitch": 34,
          "start": 240,
          "duration": 4,
          "velocity": 127
        },
        {
          "id": "example-brahms-waltz-op39-no15-track-2-note-140",
          "pitch": 65,
          "start": 244,
          "duration": 4,
          "velocity": 127
        },
        {
          "id": "example-brahms-waltz-op39-no15-track-2-note-141",
          "pitch": 62,
          "start": 244,
          "duration": 4,
          "velocity": 127
        },
        {
          "id": "example-brahms-waltz-op39-no15-track-2-note-142",
          "pitch": 56,
          "start": 244,
          "duration": 4,
          "velocity": 127
        },
        {
          "id": "example-brahms-waltz-op39-no15-track-2-note-143",
          "pitch": 58,
          "start": 244,
          "duration": 4,
          "velocity": 127
        },
        {
          "id": "example-brahms-waltz-op39-no15-track-2-note-144",
          "pitch": 62,
          "start": 248,
          "duration": 4,
          "velocity": 127
        },
        {
          "id": "example-brahms-waltz-op39-no15-track-2-note-145",
          "pitch": 58,
          "start": 248,
          "duration": 4,
          "velocity": 127
        },
        {
          "id": "example-brahms-waltz-op39-no15-track-2-note-146",
          "pitch": 53,
          "start": 248,
          "duration": 4,
          "velocity": 127
        },
        {
          "id": "example-brahms-waltz-op39-no15-track-2-note-147",
          "pitch": 39,
          "start": 252,
          "duration": 4,
          "velocity": 127
        },
        {
          "id": "example-brahms-waltz-op39-no15-track-2-note-148",
          "pitch": 61,
          "start": 256,
          "duration": 4,
          "velocity": 127
        },
        {
          "id": "example-brahms-waltz-op39-no15-track-2-note-149",
          "pitch": 58,
          "start": 256,
          "duration": 4,
          "velocity": 127
        },
        {
          "id": "example-brahms-waltz-op39-no15-track-2-note-150",
          "pitch": 51,
          "start": 256,
          "duration": 4,
          "velocity": 127
        },
        {
          "id": "example-brahms-waltz-op39-no15-track-2-note-151",
          "pitch": 63,
          "start": 260,
          "duration": 4,
          "velocity": 127
        },
        {
          "id": "example-brahms-waltz-op39-no15-track-2-note-152",
          "pitch": 58,
          "start": 260,
          "duration": 4,
          "velocity": 127
        },
        {
          "id": "example-brahms-waltz-op39-no15-track-2-note-153",
          "pitch": 51,
          "start": 260,
          "duration": 4,
          "velocity": 127
        },
        {
          "id": "example-brahms-waltz-op39-no15-track-2-note-154",
          "pitch": 44,
          "start": 264,
          "duration": 4,
          "velocity": 127
        },
        {
          "id": "example-brahms-waltz-op39-no15-track-2-note-155",
          "pitch": 60,
          "start": 268,
          "duration": 4,
          "velocity": 127
        },
        {
          "id": "example-brahms-waltz-op39-no15-track-2-note-156",
          "pitch": 56,
          "start": 268,
          "duration": 4,
          "velocity": 127
        },
        {
          "id": "example-brahms-waltz-op39-no15-track-2-note-157",
          "pitch": 51,
          "start": 268,
          "duration": 4,
          "velocity": 127
        },
        {
          "id": "example-brahms-waltz-op39-no15-track-2-note-158",
          "pitch": 56,
          "start": 272,
          "duration": 4,
          "velocity": 127
        },
        {
          "id": "example-brahms-waltz-op39-no15-track-2-note-159",
          "pitch": 51,
          "start": 272,
          "duration": 4,
          "velocity": 127
        },
        {
          "id": "example-brahms-waltz-op39-no15-track-2-note-160",
          "pitch": 48,
          "start": 272,
          "duration": 4,
          "velocity": 127
        },
        {
          "id": "example-brahms-waltz-op39-no15-track-2-note-161",
          "pitch": 32,
          "start": 276,
          "duration": 4,
          "velocity": 127
        },
        {
          "id": "example-brahms-waltz-op39-no15-track-2-note-162",
          "pitch": 60,
          "start": 280,
          "duration": 4,
          "velocity": 127
        },
        {
          "id": "example-brahms-waltz-op39-no15-track-2-note-163",
          "pitch": 56,
          "start": 280,
          "duration": 4,
          "velocity": 127
        },
        {
          "id": "example-brahms-waltz-op39-no15-track-2-note-164",
          "pitch": 51,
          "start": 280,
          "duration": 4,
          "velocity": 127
        },
        {
          "id": "example-brahms-waltz-op39-no15-track-2-note-165",
          "pitch": 56,
          "start": 284,
          "duration": 4,
          "velocity": 127
        },
        {
          "id": "example-brahms-waltz-op39-no15-track-2-note-166",
          "pitch": 51,
          "start": 284,
          "duration": 4,
          "velocity": 127
        },
        {
          "id": "example-brahms-waltz-op39-no15-track-2-note-167",
          "pitch": 48,
          "start": 284,
          "duration": 4,
          "velocity": 127
        },
        {
          "id": "example-brahms-waltz-op39-no15-track-2-note-168",
          "pitch": 44,
          "start": 288,
          "duration": 4,
          "velocity": 127
        },
        {
          "id": "example-brahms-waltz-op39-no15-track-2-note-169",
          "pitch": 61,
          "start": 292,
          "duration": 4,
          "velocity": 127
        },
        {
          "id": "example-brahms-waltz-op39-no15-track-2-note-170",
          "pitch": 53,
          "start": 292,
          "duration": 4,
          "velocity": 127
        },
        {
          "id": "example-brahms-waltz-op39-no15-track-2-note-171",
          "pitch": 49,
          "start": 292,
          "duration": 4,
          "velocity": 127
        },
        {
          "id": "example-brahms-waltz-op39-no15-track-2-note-172",
          "pitch": 56,
          "start": 296,
          "duration": 4,
          "velocity": 127
        },
        {
          "id": "example-brahms-waltz-op39-no15-track-2-note-173",
          "pitch": 53,
          "start": 296,
          "duration": 4,
          "velocity": 127
        },
        {
          "id": "example-brahms-waltz-op39-no15-track-2-note-174",
          "pitch": 32,
          "start": 300,
          "duration": 4,
          "velocity": 127
        },
        {
          "id": "example-brahms-waltz-op39-no15-track-2-note-175",
          "pitch": 60,
          "start": 304,
          "duration": 4,
          "velocity": 127
        },
        {
          "id": "example-brahms-waltz-op39-no15-track-2-note-176",
          "pitch": 56,
          "start": 304,
          "duration": 4,
          "velocity": 127
        },
        {
          "id": "example-brahms-waltz-op39-no15-track-2-note-177",
          "pitch": 51,
          "start": 304,
          "duration": 4,
          "velocity": 127
        },
        {
          "id": "example-brahms-waltz-op39-no15-track-2-note-178",
          "pitch": 56,
          "start": 308,
          "duration": 4,
          "velocity": 127
        },
        {
          "id": "example-brahms-waltz-op39-no15-track-2-note-179",
          "pitch": 51,
          "start": 308,
          "duration": 4,
          "velocity": 127
        },
        {
          "id": "example-brahms-waltz-op39-no15-track-2-note-180",
          "pitch": 48,
          "start": 308,
          "duration": 4,
          "velocity": 127
        },
        {
          "id": "example-brahms-waltz-op39-no15-track-2-note-181",
          "pitch": 41,
          "start": 312,
          "duration": 4,
          "velocity": 127
        },
        {
          "id": "example-brahms-waltz-op39-no15-track-2-note-182",
          "pitch": 65,
          "start": 316,
          "duration": 4,
          "velocity": 127
        },
        {
          "id": "example-brahms-waltz-op39-no15-track-2-note-183",
          "pitch": 60,
          "start": 316,
          "duration": 4,
          "velocity": 127
        },
        {
          "id": "example-brahms-waltz-op39-no15-track-2-note-184",
          "pitch": 53,
          "start": 316,
          "duration": 4,
          "velocity": 127
        },
        {
          "id": "example-brahms-waltz-op39-no15-track-2-note-185",
          "pitch": 56,
          "start": 316,
          "duration": 4,
          "velocity": 127
        },
        {
          "id": "example-brahms-waltz-op39-no15-track-2-note-186",
          "pitch": 60,
          "start": 320,
          "duration": 4,
          "velocity": 127
        },
        {
          "id": "example-brahms-waltz-op39-no15-track-2-note-187",
          "pitch": 51,
          "start": 320,
          "duration": 4,
          "velocity": 127
        },
        {
          "id": "example-brahms-waltz-op39-no15-track-2-note-188",
          "pitch": 44,
          "start": 320,
          "duration": 4,
          "velocity": 127
        },
        {
          "id": "example-brahms-waltz-op39-no15-track-2-note-189",
          "pitch": 41,
          "start": 324,
          "duration": 4,
          "velocity": 127
        },
        {
          "id": "example-brahms-waltz-op39-no15-track-2-note-190",
          "pitch": 65,
          "start": 328,
          "duration": 4,
          "velocity": 127
        },
        {
          "id": "example-brahms-waltz-op39-no15-track-2-note-191",
          "pitch": 60,
          "start": 328,
          "duration": 4,
          "velocity": 127
        },
        {
          "id": "example-brahms-waltz-op39-no15-track-2-note-192",
          "pitch": 53,
          "start": 328,
          "duration": 4,
          "velocity": 127
        },
        {
          "id": "example-brahms-waltz-op39-no15-track-2-note-193",
          "pitch": 56,
          "start": 328,
          "duration": 4,
          "velocity": 127
        },
        {
          "id": "example-brahms-waltz-op39-no15-track-2-note-194",
          "pitch": 60,
          "start": 332,
          "duration": 4,
          "velocity": 127
        },
        {
          "id": "example-brahms-waltz-op39-no15-track-2-note-195",
          "pitch": 51,
          "start": 332,
          "duration": 4,
          "velocity": 127
        },
        {
          "id": "example-brahms-waltz-op39-no15-track-2-note-196",
          "pitch": 44,
          "start": 332,
          "duration": 4,
          "velocity": 127
        },
        {
          "id": "example-brahms-waltz-op39-no15-track-2-note-197",
          "pitch": 36,
          "start": 336,
          "duration": 4,
          "velocity": 127
        },
        {
          "id": "example-brahms-waltz-op39-no15-track-2-note-198",
          "pitch": 39,
          "start": 340,
          "duration": 4,
          "velocity": 127
        },
        {
          "id": "example-brahms-waltz-op39-no15-track-2-note-199",
          "pitch": 55,
          "start": 344,
          "duration": 4,
          "velocity": 127
        },
        {
          "id": "example-brahms-waltz-op39-no15-track-2-note-200",
          "pitch": 51,
          "start": 344,
          "duration": 4,
          "velocity": 127
        },
        {
          "id": "example-brahms-waltz-op39-no15-track-2-note-201",
          "pitch": 44,
          "start": 348,
          "duration": 4,
          "velocity": 127
        },
        {
          "id": "example-brahms-waltz-op39-no15-track-2-note-202",
          "pitch": 56,
          "start": 352,
          "duration": 4,
          "velocity": 127
        },
        {
          "id": "example-brahms-waltz-op39-no15-track-2-note-203",
          "pitch": 51,
          "start": 352,
          "duration": 4,
          "velocity": 127
        },
        {
          "id": "example-brahms-waltz-op39-no15-track-2-note-204",
          "pitch": 60,
          "start": 356,
          "duration": 4,
          "velocity": 127
        },
        {
          "id": "example-brahms-waltz-op39-no15-track-2-note-205",
          "pitch": 56,
          "start": 356,
          "duration": 4,
          "velocity": 127
        },
        {
          "id": "example-brahms-waltz-op39-no15-track-2-note-206",
          "pitch": 51,
          "start": 356,
          "duration": 4,
          "velocity": 127
        },
        {
          "id": "example-brahms-waltz-op39-no15-track-2-note-207",
          "pitch": 39,
          "start": 360,
          "duration": 4,
          "velocity": 127
        },
        {
          "id": "example-brahms-waltz-op39-no15-track-2-note-208",
          "pitch": 61,
          "start": 364,
          "duration": 4,
          "velocity": 127
        },
        {
          "id": "example-brahms-waltz-op39-no15-track-2-note-209",
          "pitch": 55,
          "start": 364,
          "duration": 4,
          "velocity": 127
        },
        {
          "id": "example-brahms-waltz-op39-no15-track-2-note-210",
          "pitch": 51,
          "start": 364,
          "duration": 4,
          "velocity": 127
        },
        {
          "id": "example-brahms-waltz-op39-no15-track-2-note-211",
          "pitch": 55,
          "start": 368,
          "duration": 4,
          "velocity": 127
        },
        {
          "id": "example-brahms-waltz-op39-no15-track-2-note-212",
          "pitch": 51,
          "start": 368,
          "duration": 4,
          "velocity": 127
        },
        {
          "id": "example-brahms-waltz-op39-no15-track-2-note-213",
          "pitch": 44,
          "start": 372,
          "duration": 4,
          "velocity": 127
        },
        {
          "id": "example-brahms-waltz-op39-no15-track-2-note-214",
          "pitch": 60,
          "start": 376,
          "duration": 4,
          "velocity": 127
        },
        {
          "id": "example-brahms-waltz-op39-no15-track-2-note-215",
          "pitch": 56,
          "start": 376,
          "duration": 4,
          "velocity": 127
        },
        {
          "id": "example-brahms-waltz-op39-no15-track-2-note-216",
          "pitch": 51,
          "start": 376,
          "duration": 4,
          "velocity": 127
        },
        {
          "id": "example-brahms-waltz-op39-no15-track-2-note-217",
          "pitch": 56,
          "start": 380,
          "duration": 4,
          "velocity": 127
        },
        {
          "id": "example-brahms-waltz-op39-no15-track-2-note-218",
          "pitch": 51,
          "start": 380,
          "duration": 4,
          "velocity": 127
        },
        {
          "id": "example-brahms-waltz-op39-no15-track-2-note-219",
          "pitch": 32,
          "start": 384,
          "duration": 4,
          "velocity": 127
        },
        {
          "id": "example-brahms-waltz-op39-no15-track-2-note-220",
          "pitch": 66,
          "start": 388,
          "duration": 4,
          "velocity": 127
        },
        {
          "id": "example-brahms-waltz-op39-no15-track-2-note-221",
          "pitch": 60,
          "start": 388,
          "duration": 4,
          "velocity": 127
        },
        {
          "id": "example-brahms-waltz-op39-no15-track-2-note-222",
          "pitch": 56,
          "start": 388,
          "duration": 4,
          "velocity": 127
        },
        {
          "id": "example-brahms-waltz-op39-no15-track-2-note-223",
          "pitch": 60,
          "start": 392,
          "duration": 4,
          "velocity": 127
        },
        {
          "id": "example-brahms-waltz-op39-no15-track-2-note-224",
          "pitch": 56,
          "start": 392,
          "duration": 4,
          "velocity": 127
        },
        {
          "id": "example-brahms-waltz-op39-no15-track-2-note-225",
          "pitch": 37,
          "start": 396,
          "duration": 4,
          "velocity": 127
        },
        {
          "id": "example-brahms-waltz-op39-no15-track-2-note-226",
          "pitch": 65,
          "start": 400,
          "duration": 4,
          "velocity": 127
        },
        {
          "id": "example-brahms-waltz-op39-no15-track-2-note-227",
          "pitch": 61,
          "start": 400,
          "duration": 4,
          "velocity": 127
        },
        {
          "id": "example-brahms-waltz-op39-no15-track-2-note-228",
          "pitch": 56,
          "start": 400,
          "duration": 4,
          "velocity": 127
        },
        {
          "id": "example-brahms-waltz-op39-no15-track-2-note-229",
          "pitch": 61,
          "start": 404,
          "duration": 4,
          "velocity": 127
        },
        {
          "id": "example-brahms-waltz-op39-no15-track-2-note-230",
          "pitch": 56,
          "start": 404,
          "duration": 4,
          "velocity": 127
        },
        {
          "id": "example-brahms-waltz-op39-no15-track-2-note-231",
          "pitch": 46,
          "start": 408,
          "duration": 4,
          "velocity": 127
        },
        {
          "id": "example-brahms-waltz-op39-no15-track-2-note-232",
          "pitch": 34,
          "start": 408,
          "duration": 4,
          "velocity": 127
        },
        {
          "id": "example-brahms-waltz-op39-no15-track-2-note-233",
          "pitch": 65,
          "start": 412,
          "duration": 4,
          "velocity": 127
        },
        {
          "id": "example-brahms-waltz-op39-no15-track-2-note-234",
          "pitch": 62,
          "start": 412,
          "duration": 4,
          "velocity": 127
        },
        {
          "id": "example-brahms-waltz-op39-no15-track-2-note-235",
          "pitch": 56,
          "start": 412,
          "duration": 4,
          "velocity": 127
        },
        {
          "id": "example-brahms-waltz-op39-no15-track-2-note-236",
          "pitch": 58,
          "start": 412,
          "duration": 4,
          "velocity": 127
        },
        {
          "id": "example-brahms-waltz-op39-no15-track-2-note-237",
          "pitch": 62,
          "start": 416,
          "duration": 4,
          "velocity": 127
        },
        {
          "id": "example-brahms-waltz-op39-no15-track-2-note-238",
          "pitch": 58,
          "start": 416,
          "duration": 4,
          "velocity": 127
        },
        {
          "id": "example-brahms-waltz-op39-no15-track-2-note-239",
          "pitch": 53,
          "start": 416,
          "duration": 4,
          "velocity": 127
        },
        {
          "id": "example-brahms-waltz-op39-no15-track-2-note-240",
          "pitch": 39,
          "start": 420,
          "duration": 4,
          "velocity": 127
        },
        {
          "id": "example-brahms-waltz-op39-no15-track-2-note-241",
          "pitch": 61,
          "start": 424,
          "duration": 4,
          "velocity": 127
        },
        {
          "id": "example-brahms-waltz-op39-no15-track-2-note-242",
          "pitch": 58,
          "start": 424,
          "duration": 4,
          "velocity": 127
        },
        {
          "id": "example-brahms-waltz-op39-no15-track-2-note-243",
          "pitch": 51,
          "start": 424,
          "duration": 4,
          "velocity": 127
        },
        {
          "id": "example-brahms-waltz-op39-no15-track-2-note-244",
          "pitch": 63,
          "start": 428,
          "duration": 4,
          "velocity": 127
        },
        {
          "id": "example-brahms-waltz-op39-no15-track-2-note-245",
          "pitch": 58,
          "start": 428,
          "duration": 4,
          "velocity": 127
        },
        {
          "id": "example-brahms-waltz-op39-no15-track-2-note-246",
          "pitch": 51,
          "start": 428,
          "duration": 4,
          "velocity": 127
        },
        {
          "id": "example-brahms-waltz-op39-no15-track-2-note-247",
          "pitch": 32,
          "start": 432,
          "duration": 4,
          "velocity": 127
        },
        {
          "id": "example-brahms-waltz-op39-no15-track-2-note-248",
          "pitch": 60,
          "start": 436,
          "duration": 4,
          "velocity": 127
        },
        {
          "id": "example-brahms-waltz-op39-no15-track-2-note-249",
          "pitch": 56,
          "start": 436,
          "duration": 4,
          "velocity": 127
        },
        {
          "id": "example-brahms-waltz-op39-no15-track-2-note-250",
          "pitch": 51,
          "start": 436,
          "duration": 4,
          "velocity": 127
        },
        {
          "id": "example-brahms-waltz-op39-no15-track-2-note-251",
          "pitch": 56,
          "start": 440,
          "duration": 4,
          "velocity": 127
        },
        {
          "id": "example-brahms-waltz-op39-no15-track-2-note-252",
          "pitch": 51,
          "start": 440,
          "duration": 4,
          "velocity": 127
        },
        {
          "id": "example-brahms-waltz-op39-no15-track-2-note-253",
          "pitch": 48,
          "start": 440,
          "duration": 4,
          "velocity": 127
        },
        {
          "id": "example-brahms-waltz-op39-no15-track-2-note-254",
          "pitch": 32,
          "start": 444,
          "duration": 4,
          "velocity": 127
        },
        {
          "id": "example-brahms-waltz-op39-no15-track-2-note-255",
          "pitch": 60,
          "start": 448,
          "duration": 4,
          "velocity": 127
        },
        {
          "id": "example-brahms-waltz-op39-no15-track-2-note-256",
          "pitch": 56,
          "start": 448,
          "duration": 4,
          "velocity": 127
        },
        {
          "id": "example-brahms-waltz-op39-no15-track-2-note-257",
          "pitch": 51,
          "start": 448,
          "duration": 4,
          "velocity": 127
        },
        {
          "id": "example-brahms-waltz-op39-no15-track-2-note-258",
          "pitch": 56,
          "start": 452,
          "duration": 4,
          "velocity": 127
        },
        {
          "id": "example-brahms-waltz-op39-no15-track-2-note-259",
          "pitch": 51,
          "start": 452,
          "duration": 4,
          "velocity": 127
        },
        {
          "id": "example-brahms-waltz-op39-no15-track-2-note-260",
          "pitch": 48,
          "start": 452,
          "duration": 4,
          "velocity": 127
        },
        {
          "id": "example-brahms-waltz-op39-no15-track-2-note-261",
          "pitch": 37,
          "start": 456,
          "duration": 4,
          "velocity": 127
        },
        {
          "id": "example-brahms-waltz-op39-no15-track-2-note-262",
          "pitch": 56,
          "start": 460,
          "duration": 4,
          "velocity": 127
        },
        {
          "id": "example-brahms-waltz-op39-no15-track-2-note-263",
          "pitch": 49,
          "start": 460,
          "duration": 4,
          "velocity": 127
        },
        {
          "id": "example-brahms-waltz-op39-no15-track-2-note-264",
          "pitch": 56,
          "start": 464,
          "duration": 4,
          "velocity": 127
        },
        {
          "id": "example-brahms-waltz-op39-no15-track-2-note-265",
          "pitch": 53,
          "start": 464,
          "duration": 4,
          "velocity": 127
        },
        {
          "id": "example-brahms-waltz-op39-no15-track-2-note-266",
          "pitch": 32,
          "start": 468,
          "duration": 4,
          "velocity": 127
        },
        {
          "id": "example-brahms-waltz-op39-no15-track-2-note-267",
          "pitch": 60,
          "start": 472,
          "duration": 4,
          "velocity": 127
        },
        {
          "id": "example-brahms-waltz-op39-no15-track-2-note-268",
          "pitch": 56,
          "start": 472,
          "duration": 4,
          "velocity": 127
        },
        {
          "id": "example-brahms-waltz-op39-no15-track-2-note-269",
          "pitch": 51,
          "start": 472,
          "duration": 4,
          "velocity": 127
        },
        {
          "id": "example-brahms-waltz-op39-no15-track-2-note-270",
          "pitch": 56,
          "start": 476,
          "duration": 4,
          "velocity": 127
        },
        {
          "id": "example-brahms-waltz-op39-no15-track-2-note-271",
          "pitch": 51,
          "start": 476,
          "duration": 4,
          "velocity": 127
        },
        {
          "id": "example-brahms-waltz-op39-no15-track-2-note-272",
          "pitch": 48,
          "start": 476,
          "duration": 4,
          "velocity": 127
        },
        {
          "id": "example-brahms-waltz-op39-no15-track-2-note-273",
          "pitch": 41,
          "start": 480,
          "duration": 4,
          "velocity": 127
        },
        {
          "id": "example-brahms-waltz-op39-no15-track-2-note-274",
          "pitch": 60,
          "start": 484,
          "duration": 4,
          "velocity": 127
        },
        {
          "id": "example-brahms-waltz-op39-no15-track-2-note-275",
          "pitch": 56,
          "start": 484,
          "duration": 4,
          "velocity": 127
        },
        {
          "id": "example-brahms-waltz-op39-no15-track-2-note-276",
          "pitch": 53,
          "start": 484,
          "duration": 4,
          "velocity": 127
        },
        {
          "id": "example-brahms-waltz-op39-no15-track-2-note-277",
          "pitch": 56,
          "start": 488,
          "duration": 4,
          "velocity": 127
        },
        {
          "id": "example-brahms-waltz-op39-no15-track-2-note-278",
          "pitch": 51,
          "start": 488,
          "duration": 4,
          "velocity": 127
        },
        {
          "id": "example-brahms-waltz-op39-no15-track-2-note-279",
          "pitch": 44,
          "start": 488,
          "duration": 4,
          "velocity": 127
        },
        {
          "id": "example-brahms-waltz-op39-no15-track-2-note-280",
          "pitch": 41,
          "start": 492,
          "duration": 4,
          "velocity": 127
        },
        {
          "id": "example-brahms-waltz-op39-no15-track-2-note-281",
          "pitch": 60,
          "start": 496,
          "duration": 4,
          "velocity": 127
        },
        {
          "id": "example-brahms-waltz-op39-no15-track-2-note-282",
          "pitch": 56,
          "start": 496,
          "duration": 4,
          "velocity": 127
        },
        {
          "id": "example-brahms-waltz-op39-no15-track-2-note-283",
          "pitch": 53,
          "start": 496,
          "duration": 4,
          "velocity": 127
        },
        {
          "id": "example-brahms-waltz-op39-no15-track-2-note-284",
          "pitch": 56,
          "start": 500,
          "duration": 4,
          "velocity": 127
        },
        {
          "id": "example-brahms-waltz-op39-no15-track-2-note-285",
          "pitch": 51,
          "start": 500,
          "duration": 4,
          "velocity": 127
        },
        {
          "id": "example-brahms-waltz-op39-no15-track-2-note-286",
          "pitch": 44,
          "start": 500,
          "duration": 4,
          "velocity": 127
        },
        {
          "id": "example-brahms-waltz-op39-no15-track-2-note-287",
          "pitch": 36,
          "start": 504,
          "duration": 4,
          "velocity": 127
        },
        {
          "id": "example-brahms-waltz-op39-no15-track-2-note-288",
          "pitch": 39,
          "start": 508,
          "duration": 4,
          "velocity": 127
        },
        {
          "id": "example-brahms-waltz-op39-no15-track-2-note-289",
          "pitch": 61,
          "start": 512,
          "duration": 4,
          "velocity": 127
        },
        {
          "id": "example-brahms-waltz-op39-no15-track-2-note-290",
          "pitch": 55,
          "start": 512,
          "duration": 4,
          "velocity": 127
        },
        {
          "id": "example-brahms-waltz-op39-no15-track-2-note-291",
          "pitch": 51,
          "start": 512,
          "duration": 4,
          "velocity": 127
        },
        {
          "id": "example-brahms-waltz-op39-no15-track-2-note-292",
          "pitch": 32,
          "start": 516,
          "duration": 4,
          "velocity": 127
        },
        {
          "id": "example-brahms-waltz-op39-no15-track-2-note-293",
          "pitch": 60,
          "start": 520,
          "duration": 4,
          "velocity": 127
        },
        {
          "id": "example-brahms-waltz-op39-no15-track-2-note-294",
          "pitch": 56,
          "start": 520,
          "duration": 4,
          "velocity": 127
        },
        {
          "id": "example-brahms-waltz-op39-no15-track-2-note-295",
          "pitch": 51,
          "start": 520,
          "duration": 4,
          "velocity": 127
        }
      ]
    }
  ]
}
