{
  "bpm": 144,
  "bars": 11,
  "beatsPerBar": 4,
  "beats": 44,
  "stepsPerBeat": 4,
  "sustain": true,
  "tracks": [
    {
      "id": "example-schumann-haschemann-track-1",
      "name": "右手",
      "color": "#f97316",
      "program": 0,
      "volume": 94,
      "notes": [
        {
          "id": "example-schumann-haschemann-track-1-note-1",
          "pitch": 66,
          "start": 0,
          "duration": 1,
          "velocity": 90
        },
        {
          "id": "example-schumann-haschemann-track-1-note-2",
          "pitch": 62,
          "start": 1,
          "duration": 1,
          "velocity": 90
        },
        {
          "id": "example-schumann-haschemann-track-1-note-3",
          "pitch": 71,
          "start": 0,
          "duration": 4,
          "velocity": 90
        },
        {
          "id": "example-schumann-haschemann-track-1-note-4",
          "pitch": 73,
          "start": 4,
          "duration": 1,
          "velocity": 90
        },
        {
          "id": "example-schumann-haschemann-track-1-note-5",
          "pitch": 74,
          "start": 5,
          "duration": 1,
          "velocity": 90
        },
        {
          "id": "example-schumann-haschemann-track-1-note-6",
          "pitch": 76,
          "start": 6,
          "duration": 1,
          "velocity": 90
        },
        {
          "id": "example-schumann-haschemann-track-1-note-7",
          "pitch": 78,
          "start": 7,
          "duration": 1,
          "velocity": 90
        },
        {
          "id": "example-schumann-haschemann-track-1-note-8",
          "pitch": 81,
          "start": 8,
          "duration": 1,
          "velocity": 90
        },
        {
          "id": "example-schumann-haschemann-track-1-note-9",
          "pitch": 79,
          "start": 9,
          "duration": 1,
          "velocity": 90
        },
        {
          "id": "example-schumann-haschemann-track-1-note-10",
          "pitch": 78,
          "start": 10,
          "duration": 1,
          "velocity": 90
        },
        {
          "id": "example-schumann-haschemann-track-1-note-11",
          "pitch": 76,
          "start": 11,
          "duration": 1,
          "velocity": 90
        },
        {
          "id": "example-schumann-haschemann-track-1-note-12",
          "pitch": 79,
          "start": 12,
          "duration": 1,
          "velocity": 90
        },
        {
          "id": "example-schumann-haschemann-track-1-note-13",
          "pitch": 78,
          "start": 13,
          "duration": 1,
          "velocity": 90
        },
        {
          "id": "example-schumann-haschemann-track-1-note-14",
          "pitch": 76,
          "start": 14,
          "duration": 1,
          "velocity": 90
        },
        {
          "id": "example-schumann-haschemann-track-1-note-15",
          "pitch": 74,
          "start": 15,
          "duration": 1,
          "velocity": 90
        },
        {
          "id": "example-schumann-haschemann-track-1-note-16",
          "pitch": 71,
          "start": 16,
          "duration": 1,
          "velocity": 90
        },
        {
          "id": "example-schumann-haschemann-track-1-note-17",
          "pitch": 67,
          "start": 17,
          "duration": 1,
          "velocity": 90
        },
        {
          "id": "example-schumann-haschemann-track-1-note-18",
          "pitch": 76,
          "start": 16,
          "duration": 4,
          "velocity": 90
        },
        {
          "id": "example-schumann-haschemann-track-1-note-19",
          "pitch": 78,
          "start": 20,
          "duration": 1,
          "velocity": 90
        },
        {
          "id": "example-schumann-haschemann-track-1-note-20",
          "pitch": 79,
          "start": 21,
          "duration": 1,
          "velocity": 90
        },
        {
          "id": "example-schumann-haschemann-track-1-note-21",
          "pitch": 81,
          "start": 22,
          "duration": 1,
          "velocity": 90
        },
        {
          "id": "example-schumann-haschemann-track-1-note-22",
          "pitch": 83,
          "start": 23,
          "duration": 1,
          "velocity": 90
        },
        {
          "id": "example-schumann-haschemann-track-1-note-23",
          "pitch": 86,
          "start": 24,
          "duration": 1,
          "velocity": 90
        },
        {
          "id": "example-schumann-haschemann-track-1-note-24",
          "pitch": 85,
          "start": 25,
          "duration": 1,
          "velocity": 90
        },
        {
          "id": "example-schumann-haschemann-track-1-note-25",
          "pitch": 83,
          "start": 26,
          "duration": 1,
          "velocity": 90
        },
        {
          "id": "example-schumann-haschemann-track-1-note-26",
          "pitch": 82,
          "start": 27,
          "duration": 1,
          "velocity": 90
        },
        {
          "id": "example-schumann-haschemann-track-1-note-27",
          "pitch": 83,
          "start": 28,
          "duration": 1,
          "velocity": 90
        },
        {
          "id": "example-schumann-haschemann-track-1-note-28",
          "pitch": 78,
          "start": 28,
          "duration": 1,
          "velocity": 90
        },
        {
          "id": "example-schumann-haschemann-track-1-note-29",
          "pitch": 74,
          "start": 29,
          "duration": 1,
          "velocity": 90
        },
        {
          "id": "example-schumann-haschemann-track-1-note-30",
          "pitch": 71,
          "start": 30,
          "duration": 1,
          "velocity": 90
        },
        {
          "id": "example-schumann-haschemann-track-1-note-31",
          "pitch": 66,
          "start": 31,
          "duration": 1,
          "velocity": 90
        },
        {
          "id": "example-schumann-haschemann-track-1-note-32",
          "pitch": 66,
          "start": 32,
          "duration": 1,
          "velocity": 90
        },
        {
          "id": "example-schumann-haschemann-track-1-note-33",
          "pitch": 62,
          "start": 33,
          "duration": 1,
          "velocity": 90
        },
        {
          "id": "example-schumann-haschemann-track-1-note-34",
          "pitch": 71,
          "start": 32,
          "duration": 4,
          "velocity": 90
        },
        {
          "id": "example-schumann-haschemann-track-1-note-35",
          "pitch": 73,
          "start": 36,
          "duration": 1,
          "velocity": 90
        },
        {
          "id": "example-schumann-haschemann-track-1-note-36",
          "pitch": 74,
          "start": 37,
          "duration": 1,
          "velocity": 90
        },
        {
          "id": "example-schumann-haschemann-track-1-note-37",
          "pitch": 76,
          "start": 38,
          "duration": 1,
          "velocity": 90
        },
        {
          "id": "example-schumann-haschemann-track-1-note-38",
          "pitch": 78,
          "start": 39,
          "duration": 1,
          "velocity": 90
        },
        {
          "id": "example-schumann-haschemann-track-1-note-39",
          "pitch": 81,
          "start": 40,
          "duration": 1,
          "velocity": 90
        },
        {
          "id": "example-schumann-haschemann-track-1-note-40",
          "pitch": 79,
          "start": 41,
          "duration": 1,
          "velocity": 90
        },
        {
          "id": "example-schumann-haschemann-track-1-note-41",
          "pitch": 78,
          "start": 42,
          "duration": 1,
          "velocity": 90
        },
        {
          "id": "example-schumann-haschemann-track-1-note-42",
          "pitch": 76,
          "start": 43,
          "duration": 1,
          "velocity": 90
        },
        {
          "id": "example-schumann-haschemann-track-1-note-43",
          "pitch": 79,
          "start": 44,
          "duration": 1,
          "velocity": 90
        },
        {
          "id": "example-schumann-haschemann-track-1-note-44",
          "pitch": 78,
          "start": 45,
          "duration": 1,
          "velocity": 90
        },
        {
          "id": "example-schumann-haschemann-track-1-note-45",
          "pitch": 76,
          "start": 46,
          "duration": 1,
          "velocity": 90
        },
        {
          "id": "example-schumann-haschemann-track-1-note-46",
          "pitch": 74,
          "start": 47,
          "duration": 1,
          "velocity": 90
        },
        {
          "id": "example-schumann-haschemann-track-1-note-47",
          "pitch": 71,
          "start": 48,
          "duration": 1,
          "velocity": 90
        },
        {
          "id": "example-schumann-haschemann-track-1-note-48",
          "pitch": 67,
          "start": 49,
          "duration": 1,
          "velocity": 90
        },
        {
          "id": "example-schumann-haschemann-track-1-note-49",
          "pitch": 76,
          "start": 48,
          "duration": 4,
          "velocity": 90
        },
        {
          "id": "example-schumann-haschemann-track-1-note-50",
          "pitch": 78,
          "start": 52,
          "duration": 1,
          "velocity": 90
        },
        {
          "id": "example-schumann-haschemann-track-1-note-51",
          "pitch": 79,
          "start": 53,
          "duration": 1,
          "velocity": 90
        },
        {
          "id": "example-schumann-haschemann-track-1-note-52",
          "pitch": 81,
          "start": 54,
          "duration": 1,
          "velocity": 90
        },
        {
          "id": "example-schumann-haschemann-track-1-note-53",
          "pitch": 83,
          "start": 55,
          "duration": 1,
          "velocity": 90
        },
        {
          "id": "example-schumann-haschemann-track-1-note-54",
          "pitch": 86,
          "start": 56,
          "duration": 1,
          "velocity": 90
        },
        {
          "id": "example-schumann-haschemann-track-1-note-55",
          "pitch": 85,
          "start": 57,
          "duration": 1,
          "velocity": 90
        },
        {
          "id": "example-schumann-haschemann-track-1-note-56",
          "pitch": 83,
          "start": 58,
          "duration": 1,
          "velocity": 90
        },
        {
          "id": "example-schumann-haschemann-track-1-note-57",
          "pitch": 82,
          "start": 59,
          "duration": 1,
          "velocity": 90
        },
        {
          "id": "example-schumann-haschemann-track-1-note-58",
          "pitch": 78,
          "start": 60,
          "duration": 1,
          "velocity": 90
        },
        {
          "id": "example-schumann-haschemann-track-1-note-59",
          "pitch": 83,
          "start": 60,
          "duration": 1,
          "velocity": 90
        },
        {
          "id": "example-schumann-haschemann-track-1-note-60",
          "pitch": 74,
          "start": 61,
          "duration": 1,
          "velocity": 90
        },
        {
          "id": "example-schumann-haschemann-track-1-note-61",
          "pitch": 71,
          "start": 62,
          "duration": 1,
          "velocity": 90
        },
        {
          "id": "example-schumann-haschemann-track-1-note-62",
          "pitch": 66,
          "start": 63,
          "duration": 1,
          "velocity": 90
        },
        {
          "id": "example-schumann-haschemann-track-1-note-63",
          "pitch": 74,
          "start": 64,
          "duration": 1,
          "velocity": 90
        },
        {
          "id": "example-schumann-haschemann-track-1-note-64",
          "pitch": 71,
          "start": 65,
          "duration": 1,
          "velocity": 90
        },
        {
          "id": "example-schumann-haschemann-track-1-note-65",
          "pitch": 79,
          "start": 64,
          "duration": 4,
          "velocity": 90
        },
        {
          "id": "example-schumann-haschemann-track-1-note-66",
          "pitch": 69,
          "start": 68,
          "duration": 1,
          "velocity": 90
        },
        {
          "id": "example-schumann-haschemann-track-1-note-67",
          "pitch": 71,
          "start": 69,
          "duration": 1,
          "velocity": 90
        },
        {
          "id": "example-schumann-haschemann-track-1-note-68",
          "pitch": 73,
          "start": 70,
          "duration": 1,
          "velocity": 90
        },
        {
          "id": "example-schumann-haschemann-track-1-note-69",
          "pitch": 74,
          "start": 71,
          "duration": 1,
          "velocity": 90
        },
        {
          "id": "example-schumann-haschemann-track-1-note-70",
          "pitch": 78,
          "start": 72,
          "duration": 1,
          "velocity": 90
        },
        {
          "id": "example-schumann-haschemann-track-1-note-71",
          "pitch": 76,
          "start": 73,
          "duration": 1,
          "velocity": 90
        },
        {
          "id": "example-schumann-haschemann-track-1-note-72",
          "pitch": 74,
          "start": 74,
          "duration": 1,
          "velocity": 90
        },
        {
          "id": "example-schumann-haschemann-track-1-note-73",
          "pitch": 72,
          "start": 75,
          "duration": 1,
          "velocity": 90
        },
        {
          "id": "example-schumann-haschemann-track-1-note-74",
          "pitch": 71,
          "start": 76,
          "duration": 1,
          "velocity": 90
        },
        {
          "id": "example-schumann-haschemann-track-1-note-75",
          "pitch": 69,
          "start": 77,
          "duration": 1,
          "velocity": 90
        },
        {
          "id": "example-schumann-haschemann-track-1-note-76",
          "pitch": 67,
          "start": 78,
          "duration": 1,
          "velocity": 90
        },
        {
          "id": "example-schumann-haschemann-track-1-note-77",
          "pitch": 66,
          "start": 79,
          "duration": 1,
          "velocity": 90
        },
        {
          "id": "example-schumann-haschemann-track-1-note-78",
          "pitch": 64,
          "start": 80,
          "duration": 1,
          "velocity": 90
        },
        {
          "id": "example-schumann-haschemann-track-1-note-79",
          "pitch": 59,
          "start": 81,
          "duration": 1,
          "velocity": 90
        },
        {
          "id": "example-schumann-haschemann-track-1-note-80",
          "pitch": 67,
          "start": 80,
          "duration": 4,
          "velocity": 90
        },
        {
          "id": "example-schumann-haschemann-track-1-note-81",
          "pitch": 66,
          "start": 84,
          "duration": 1,
          "velocity": 90
        },
        {
          "id": "example-schumann-haschemann-track-1-note-82",
          "pitch": 67,
          "start": 85,
          "duration": 1,
          "velocity": 90
        },
        {
          "id": "example-schumann-haschemann-track-1-note-83",
          "pitch": 69,
          "start": 86,
          "duration": 1,
          "velocity": 90
        },
        {
          "id": "example-schumann-haschemann-track-1-note-84",
          "pitch": 71,
          "start": 87,
          "duration": 1,
          "velocity": 90
        },
        {
          "id": "example-schumann-haschemann-track-1-note-85",
          "pitch": 74,
          "start": 88,
          "duration": 1,
          "velocity": 90
        },
        {
          "id": "example-schumann-haschemann-track-1-note-86",
          "pitch": 72,
          "start": 89,
          "duration": 1,
          "velocity": 90
        },
        {
          "id": "example-schumann-haschemann-track-1-note-87",
          "pitch": 71,
          "start": 90,
          "duration": 1,
          "velocity": 90
        },
        {
          "id": "example-schumann-haschemann-track-1-note-88",
          "pitch": 69,
          "start": 91,
          "duration": 1,
          "velocity": 90
        },
        {
          "id": "example-schumann-haschemann-track-1-note-89",
          "pitch": 67,
          "start": 92,
          "duration": 1,
          "velocity": 90
        },
        {
          "id": "example-schumann-haschemann-track-1-note-90",
          "pitch": 66,
          "start": 93,
          "duration": 1,
          "velocity": 90
        },
        {
          "id": "example-schumann-haschemann-track-1-note-91",
          "pitch": 64,
          "start": 94,
          "duration": 1,
          "velocity": 90
        },
        {
          "id": "example-schumann-haschemann-track-1-note-92",
          "pitch": 63,
          "start": 95,
          "duration": 1,
          "velocity": 90
        },
        {
          "id": "example-schumann-haschemann-track-1-note-93",
          "pitch": 60,
          "start": 96,
          "duration": 1,
          "velocity": 90
        },
        {
          "id": "example-schumann-haschemann-track-1-note-94",
          "pitch": 55,
          "start": 97,
          "duration": 1,
          "velocity": 90
        },
        {
          "id": "example-schumann-haschemann-track-1-note-95",
          "pitch": 64,
          "start": 96,
          "duration": 4,
          "velocity": 90
        },
        {
          "id": "example-schumann-haschemann-track-1-note-96",
          "pitch": 62,
          "start": 100,
          "duration": 2,
          "velocity": 90
        },
        {
          "id": "example-schumann-haschemann-track-1-note-97",
          "pitch": 64,
          "start": 101,
          "duration": 1,
          "velocity": 90
        },
        {
          "id": "example-schumann-haschemann-track-1-note-98",
          "pitch": 65,
          "start": 102,
          "duration": 1,
          "velocity": 90
        },
        {
          "id": "example-schumann-haschemann-track-1-note-99",
          "pitch": 59,
          "start": 102,
          "duration": 2,
          "velocity": 90
        },
        {
          "id": "example-schumann-haschemann-track-1-note-100",
          "pitch": 67,
          "start": 103,
          "duration": 1,
          "velocity": 90
        },
        {
          "id": "example-schumann-haschemann-track-1-note-101",
          "pitch": 60,
          "start": 104,
          "duration": 1,
          "velocity": 90
        },
        {
          "id": "example-schumann-haschemann-track-1-note-102",
          "pitch": 55,
          "start": 105,
          "duration": 1,
          "velocity": 90
        },
        {
          "id": "example-schumann-haschemann-track-1-note-103",
          "pitch": 64,
          "start": 104,
          "duration": 4,
          "velocity": 90
        },
        {
          "id": "example-schumann-haschemann-track-1-note-104",
          "pitch": 65,
          "start": 108,
          "duration": 2,
          "velocity": 90
        },
        {
          "id": "example-schumann-haschemann-track-1-note-105",
          "pitch": 67,
          "start": 109,
          "duration": 1,
          "velocity": 90
        },
        {
          "id": "example-schumann-haschemann-track-1-note-106",
          "pitch": 69,
          "start": 110,
          "duration": 1,
          "velocity": 90
        },
        {
          "id": "example-schumann-haschemann-track-1-note-107",
          "pitch": 62,
          "start": 110,
          "duration": 2,
          "velocity": 90
        },
        {
          "id": "example-schumann-haschemann-track-1-note-108",
          "pitch": 71,
          "start": 111,
          "duration": 1,
          "velocity": 90
        },
        {
          "id": "example-schumann-haschemann-track-1-note-109",
          "pitch": 67,
          "start": 112,
          "duration": 1,
          "velocity": 90
        },
        {
          "id": "example-schumann-haschemann-track-1-note-110",
          "pitch": 64,
          "start": 113,
          "duration": 1,
          "velocity": 90
        },
        {
          "id": "example-schumann-haschemann-track-1-note-111",
          "pitch": 72,
          "start": 112,
          "duration": 4,
          "velocity": 90
        },
        {
          "id": "example-schumann-haschemann-track-1-note-112",
          "pitch": 64,
          "start": 117,
          "duration": 1,
          "velocity": 90
        },
        {
          "id": "example-schumann-haschemann-track-1-note-113",
          "pitch": 70,
          "start": 116,
          "duration": 12,
          "velocity": 90
        },
        {
          "id": "example-schumann-haschemann-track-1-note-114",
          "pitch": 76,
          "start": 116,
          "duration": 12,
          "velocity": 90
        },
        {
          "id": "example-schumann-haschemann-track-1-note-115",
          "pitch": 66,
          "start": 128,
          "duration": 1,
          "velocity": 90
        },
        {
          "id": "example-schumann-haschemann-track-1-note-116",
          "pitch": 62,
          "start": 129,
          "duration": 1,
          "velocity": 90
        },
        {
          "id": "example-schumann-haschemann-track-1-note-117",
          "pitch": 71,
          "start": 128,
          "duration": 4,
          "velocity": 90
        },
        {
          "id": "example-schumann-haschemann-track-1-note-118",
          "pitch": 73,
          "start": 132,
          "duration": 1,
          "velocity": 90
        },
        {
          "id": "example-schumann-haschemann-track-1-note-119",
          "pitch": 74,
          "start": 133,
          "duration": 1,
          "velocity": 90
        },
        {
          "id": "example-schumann-haschemann-track-1-note-120",
          "pitch": 76,
          "start": 134,
          "duration": 1,
          "velocity": 90
        },
        {
          "id": "example-schumann-haschemann-track-1-note-121",
          "pitch": 78,
          "start": 135,
          "duration": 1,
          "velocity": 90
        },
        {
          "id": "example-schumann-haschemann-track-1-note-122",
          "pitch": 81,
          "start": 136,
          "duration": 1,
          "velocity": 90
        },
        {
          "id": "example-schumann-haschemann-track-1-note-123",
          "pitch": 79,
          "start": 137,
          "duration": 1,
          "velocity": 90
        },
        {
          "id": "example-schumann-haschemann-track-1-note-124",
          "pitch": 78,
          "start": 138,
          "duration": 1,
          "velocity": 90
        },
        {
          "id": "example-schumann-haschemann-track-1-note-125",
          "pitch": 76,
          "start": 139,
          "duration": 1,
          "velocity": 90
        },
        {
          "id": "example-schumann-haschemann-track-1-note-126",
          "pitch": 79,
          "start": 140,
          "duration": 1,
          "velocity": 90
        },
        {
          "id": "example-schumann-haschemann-track-1-note-127",
          "pitch": 78,
          "start": 141,
          "duration": 1,
          "velocity": 90
        },
        {
          "id": "example-schumann-haschemann-track-1-note-128",
          "pitch": 76,
          "start": 142,
          "duration": 1,
          "velocity": 90
        },
        {
          "id": "example-schumann-haschemann-track-1-note-129",
          "pitch": 74,
          "start": 143,
          "duration": 1,
          "velocity": 90
        },
        {
          "id": "example-schumann-haschemann-track-1-note-130",
          "pitch": 71,
          "start": 144,
          "duration": 1,
          "velocity": 90
        },
        {
          "id": "example-schumann-haschemann-track-1-note-131",
          "pitch": 67,
          "start": 145,
          "duration": 1,
          "velocity": 90
        },
        {
          "id": "example-schumann-haschemann-track-1-note-132",
          "pitch": 76,
          "start": 144,
          "duration": 4,
          "velocity": 90
        },
        {
          "id": "example-schumann-haschemann-track-1-note-133",
          "pitch": 78,
          "start": 148,
          "duration": 1,
          "velocity": 90
        },
        {
          "id": "example-schumann-haschemann-track-1-note-134",
          "pitch": 79,
          "start": 149,
          "duration": 1,
          "velocity": 90
        },
        {
          "id": "example-schumann-haschemann-track-1-note-135",
          "pitch": 81,
          "start": 150,
          "duration": 1,
          "velocity": 90
        },
        {
          "id": "example-schumann-haschemann-track-1-note-136",
          "pitch": 83,
          "start": 151,
          "duration": 1,
          "velocity": 90
        },
        {
          "id": "example-schumann-haschemann-track-1-note-137",
          "pitch": 86,
          "start": 152,
          "duration": 1,
          "velocity": 90
        },
        {
          "id": "example-schumann-haschemann-track-1-note-138",
          "pitch": 85,
          "start": 153,
          "duration": 1,
          "velocity": 90
        },
        {
          "id": "example-schumann-haschemann-track-1-note-139",
          "pitch": 83,
          "start": 154,
          "duration": 1,
          "velocity": 90
        },
        {
          "id": "example-schumann-haschemann-track-1-note-140",
          "pitch": 82,
          "start": 155,
          "duration": 1,
          "velocity": 90
        },
        {
          "id": "example-schumann-haschemann-track-1-note-141",
          "pitch": 83,
          "start": 156,
          "duration": 1,
          "velocity": 90
        },
        {
          "id": "example-schumann-haschemann-track-1-note-142",
          "pitch": 78,
          "start": 156,
          "duration": 1,
          "velocity": 90
        },
        {
          "id": "example-schumann-haschemann-track-1-note-143",
          "pitch": 74,
          "start": 157,
          "duration": 1,
          "velocity": 90
        },
        {
          "id": "example-schumann-haschemann-track-1-note-144",
          "pitch": 71,
          "start": 158,
          "duration": 1,
          "velocity": 90
        },
        {
          "id": "example-schumann-haschemann-track-1-note-145",
          "pitch": 66,
          "start": 159,
          "duration": 1,
          "velocity": 90
        },
        {
          "id": "example-schumann-haschemann-track-1-note-146",
          "pitch": 86,
          "start": 160,
          "duration": 1,
          "velocity": 90
        },
        {
          "id": "example-schumann-haschemann-track-1-note-147",
          "pitch": 85,
          "start": 161,
          "duration": 1,
          "velocity": 90
        },
        {
          "id": "example-schumann-haschemann-track-1-note-148",
          "pitch": 83,
          "start": 162,
          "duration": 1,
          "velocity": 90
        },
        {
          "id": "example-schumann-haschemann-track-1-note-149",
          "pitch": 82,
          "start": 163,
          "duration": 1,
          "velocity": 90
        },
        {
          "id": "example-schumann-haschemann-track-1-note-150",
          "pitch": 83,
          "start": 164,
          "duration": 4,
          "velocity": 90
        }
      ]
    },
    {
      "id": "example-schumann-haschemann-track-2",
      "name": "左手",
      "color": "#2563eb",
      "program": 0,
      "volume": 86,
      "notes": [
        {
          "id": "example-schumann-haschemann-track-2-note-1",
          "pitch": 47,
          "start": 0,
          "duration": 1,
          "velocity": 90
        },
        {
          "id": "example-schumann-haschemann-track-2-note-2",
          "pitch": 59,
          "start": 2,
          "duration": 1,
          "velocity": 90
        },
        {
          "id": "example-schumann-haschemann-track-2-note-3",
          "pitch": 54,
          "start": 3,
          "duration": 1,
          "velocity": 90
        },
        {
          "id": "example-schumann-haschemann-track-2-note-4",
          "pitch": 47,
          "start": 4,
          "duration": 2,
          "velocity": 90
        },
        {
          "id": "example-schumann-haschemann-track-2-note-5",
          "pitch": 54,
          "start": 6,
          "duration": 2,
          "velocity": 90
        },
        {
          "id": "example-schumann-haschemann-track-2-note-6",
          "pitch": 62,
          "start": 6,
          "duration": 2,
          "velocity": 90
        },
        {
          "id": "example-schumann-haschemann-track-2-note-7",
          "pitch": 52,
          "start": 8,
          "duration": 2,
          "velocity": 90
        },
        {
          "id": "example-schumann-haschemann-track-2-note-8",
          "pitch": 59,
          "start": 10,
          "duration": 2,
          "velocity": 90
        },
        {
          "id": "example-schumann-haschemann-track-2-note-9",
          "pitch": 64,
          "start": 10,
          "duration": 2,
          "velocity": 90
        },
        {
          "id": "example-schumann-haschemann-track-2-note-10",
          "pitch": 47,
          "start": 12,
          "duration": 2,
          "velocity": 90
        },
        {
          "id": "example-schumann-haschemann-track-2-note-11",
          "pitch": 59,
          "start": 14,
          "duration": 2,
          "velocity": 90
        },
        {
          "id": "example-schumann-haschemann-track-2-note-12",
          "pitch": 62,
          "start": 14,
          "duration": 2,
          "velocity": 90
        },
        {
          "id": "example-schumann-haschemann-track-2-note-13",
          "pitch": 52,
          "start": 16,
          "duration": 1,
          "velocity": 90
        },
        {
          "id": "example-schumann-haschemann-track-2-note-14",
          "pitch": 64,
          "start": 18,
          "duration": 1,
          "velocity": 90
        },
        {
          "id": "example-schumann-haschemann-track-2-note-15",
          "pitch": 59,
          "start": 19,
          "duration": 1,
          "velocity": 90
        },
        {
          "id": "example-schumann-haschemann-track-2-note-16",
          "pitch": 52,
          "start": 20,
          "duration": 2,
          "velocity": 90
        },
        {
          "id": "example-schumann-haschemann-track-2-note-17",
          "pitch": 64,
          "start": 22,
          "duration": 2,
          "velocity": 90
        },
        {
          "id": "example-schumann-haschemann-track-2-note-18",
          "pitch": 67,
          "start": 22,
          "duration": 2,
          "velocity": 90
        },
        {
          "id": "example-schumann-haschemann-track-2-note-19",
          "pitch": 54,
          "start": 24,
          "duration": 2,
          "velocity": 90
        },
        {
          "id": "example-schumann-haschemann-track-2-note-20",
          "pitch": 64,
          "start": 26,
          "duration": 2,
          "velocity": 90
        },
        {
          "id": "example-schumann-haschemann-track-2-note-21",
          "pitch": 70,
          "start": 26,
          "duration": 2,
          "velocity": 90
        },
        {
          "id": "example-schumann-haschemann-track-2-note-22",
          "pitch": 59,
          "start": 28,
          "duration": 1,
          "velocity": 90
        },
        {
          "id": "example-schumann-haschemann-track-2-note-23",
          "pitch": 47,
          "start": 32,
          "duration": 1,
          "velocity": 90
        },
        {
          "id": "example-schumann-haschemann-track-2-note-24",
          "pitch": 59,
          "start": 34,
          "duration": 1,
          "velocity": 90
        },
        {
          "id": "example-schumann-haschemann-track-2-note-25",
          "pitch": 54,
          "start": 35,
          "duration": 1,
          "velocity": 90
        },
        {
          "id": "example-schumann-haschemann-track-2-note-26",
          "pitch": 47,
          "start": 36,
          "duration": 2,
          "velocity": 90
        },
        {
          "id": "example-schumann-haschemann-track-2-note-27",
          "pitch": 54,
          "start": 38,
          "duration": 2,
          "velocity": 90
        },
        {
          "id": "example-schumann-haschemann-track-2-note-28",
          "pitch": 62,
          "start": 38,
          "duration": 2,
          "velocity": 90
        },
        {
          "id": "example-schumann-haschemann-track-2-note-29",
          "pitch": 52,
          "start": 40,
          "duration": 2,
          "velocity": 90
        },
        {
          "id": "example-schumann-haschemann-track-2-note-30",
          "pitch": 64,
          "start": 42,
          "duration": 2,
          "velocity": 90
        },
        {
          "id": "example-schumann-haschemann-track-2-note-31",
          "pitch": 59,
          "start": 42,
          "duration": 2,
          "velocity": 90
        },
        {
          "id": "example-schumann-haschemann-track-2-note-32",
          "pitch": 47,
          "start": 44,
          "duration": 2,
          "velocity": 90
        },
        {
          "id": "example-schumann-haschemann-track-2-note-33",
          "pitch": 59,
          "start": 46,
          "duration": 2,
          "velocity": 90
        },
        {
          "id": "example-schumann-haschemann-track-2-note-34",
          "pitch": 62,
          "start": 46,
          "duration": 2,
          "velocity": 90
        },
        {
          "id": "example-schumann-haschemann-track-2-note-35",
          "pitch": 52,
          "start": 48,
          "duration": 1,
          "velocity": 90
        },
        {
          "id": "example-schumann-haschemann-track-2-note-36",
          "pitch": 64,
          "start": 50,
          "duration": 1,
          "velocity": 90
        },
        {
          "id": "example-schumann-haschemann-track-2-note-37",
          "pitch": 59,
          "start": 51,
          "duration": 1,
          "velocity": 90
        },
        {
          "id": "example-schumann-haschemann-track-2-note-38",
          "pitch": 52,
          "start": 52,
          "duration": 2,
          "velocity": 90
        },
        {
          "id": "example-schumann-haschemann-track-2-note-39",
          "pitch": 64,
          "start": 54,
          "duration": 2,
          "velocity": 90
        },
        {
          "id": "example-schumann-haschemann-track-2-note-40",
          "pitch": 67,
          "start": 54,
          "duration": 2,
          "velocity": 90
        },
        {
          "id": "example-schumann-haschemann-track-2-note-41",
          "pitch": 54,
          "start": 56,
          "duration": 2,
          "velocity": 90
        },
        {
          "id": "example-schumann-haschemann-track-2-note-42",
          "pitch": 64,
          "start": 58,
          "duration": 2,
          "velocity": 90
        },
        {
          "id": "example-schumann-haschemann-track-2-note-43",
          "pitch": 70,
          "start": 58,
          "duration": 2,
          "velocity": 90
        },
        {
          "id": "example-schumann-haschemann-track-2-note-44",
          "pitch": 59,
          "start": 60,
          "duration": 1,
          "velocity": 90
        },
        {
          "id": "example-schumann-haschemann-track-2-note-45",
          "pitch": 59,
          "start": 64,
          "duration": 1,
          "velocity": 90
        },
        {
          "id": "example-schumann-haschemann-track-2-note-46",
          "pitch": 67,
          "start": 66,
          "duration": 1,
          "velocity": 90
        },
        {
          "id": "example-schumann-haschemann-track-2-note-47",
          "pitch": 62,
          "start": 67,
          "duration": 1,
          "velocity": 90
        },
        {
          "id": "example-schumann-haschemann-track-2-note-48",
          "pitch": 59,
          "start": 68,
          "duration": 2,
          "velocity": 90
        },
        {
          "id": "example-schumann-haschemann-track-2-note-49",
          "pitch": 62,
          "start": 70,
          "duration": 2,
          "velocity": 90
        },
        {
          "id": "example-schumann-haschemann-track-2-note-50",
          "pitch": 67,
          "start": 70,
          "duration": 2,
          "velocity": 90
        },
        {
          "id": "example-schumann-haschemann-track-2-note-51",
          "pitch": 57,
          "start": 72,
          "duration": 2,
          "velocity": 90
        },
        {
          "id": "example-schumann-haschemann-track-2-note-52",
          "pitch": 60,
          "start": 74,
          "duration": 2,
          "velocity": 90
        },
        {
          "id": "example-schumann-haschemann-track-2-note-53",
          "pitch": 67,
          "start": 74,
          "duration": 2,
          "velocity": 90
        },
        {
          "id": "example-schumann-haschemann-track-2-note-54",
          "pitch": 50,
          "start": 76,
          "duration": 2,
          "velocity": 90
        },
        {
          "id": "example-schumann-haschemann-track-2-note-55",
          "pitch": 60,
          "start": 78,
          "duration": 2,
          "velocity": 90
        },
        {
          "id": "example-schumann-haschemann-track-2-note-56",
          "pitch": 55,
          "start": 82,
          "duration": 1,
          "velocity": 90
        },
        {
          "id": "example-schumann-haschemann-track-2-note-57",
          "pitch": 52,
          "start": 83,
          "duration": 1,
          "velocity": 90
        },
        {
          "id": "example-schumann-haschemann-track-2-note-58",
          "pitch": 47,
          "start": 84,
          "duration": 2,
          "velocity": 90
        },
        {
          "id": "example-schumann-haschemann-track-2-note-59",
          "pitch": 55,
          "start": 86,
          "duration": 2,
          "velocity": 90
        },
        {
          "id": "example-schumann-haschemann-track-2-note-60",
          "pitch": 59,
          "start": 86,
          "duration": 2,
          "velocity": 90
        },
        {
          "id": "example-schumann-haschemann-track-2-note-61",
          "pitch": 45,
          "start": 88,
          "duration": 2,
          "velocity": 90
        },
        {
          "id": "example-schumann-haschemann-track-2-note-62",
          "pitch": 54,
          "start": 90,
          "duration": 2,
          "velocity": 90
        },
        {
          "id": "example-schumann-haschemann-track-2-note-63",
          "pitch": 60,
          "start": 90,
          "duration": 2,
          "velocity": 90
        },
        {
          "id": "example-schumann-haschemann-track-2-note-64",
          "pitch": 47,
          "start": 92,
          "duration": 2,
          "velocity": 90
        },
        {
          "id": "example-schumann-haschemann-track-2-note-65",
          "pitch": 54,
          "start": 94,
          "duration": 2,
          "velocity": 90
        },
        {
          "id": "example-schumann-haschemann-track-2-note-66",
          "pitch": 57,
          "start": 94,
          "duration": 2,
          "velocity": 90
        },
        {
          "id": "example-schumann-haschemann-track-2-note-67",
          "pitch": 52,
          "start": 98,
          "duration": 1,
          "velocity": 90
        },
        {
          "id": "example-schumann-haschemann-track-2-note-68",
          "pitch": 48,
          "start": 99,
          "duration": 1,
          "velocity": 90
        },
        {
          "id": "example-schumann-haschemann-track-2-note-69",
          "pitch": 52,
          "start": 106,
          "duration": 1,
          "velocity": 90
        },
        {
          "id": "example-schumann-haschemann-track-2-note-70",
          "pitch": 43,
          "start": 100,
          "duration": 8,
          "velocity": 90
        },
        {
          "id": "example-schumann-haschemann-track-2-note-71",
          "pitch": 36,
          "start": 100,
          "duration": 8,
          "velocity": 90
        },
        {
          "id": "example-schumann-haschemann-track-2-note-72",
          "pitch": 48,
          "start": 107,
          "duration": 1,
          "velocity": 90
        },
        {
          "id": "example-schumann-haschemann-track-2-note-73",
          "pitch": 43,
          "start": 108,
          "duration": 6,
          "velocity": 90
        },
        {
          "id": "example-schumann-haschemann-track-2-note-74",
          "pitch": 36,
          "start": 108,
          "duration": 6,
          "velocity": 90
        },
        {
          "id": "example-schumann-haschemann-track-2-note-75",
          "pitch": 60,
          "start": 114,
          "duration": 1,
          "velocity": 90
        },
        {
          "id": "example-schumann-haschemann-track-2-note-76",
          "pitch": 55,
          "start": 115,
          "duration": 1,
          "velocity": 90
        },
        {
          "id": "example-schumann-haschemann-track-2-note-77",
          "pitch": 56,
          "start": 118,
          "duration": 1,
          "velocity": 90
        },
        {
          "id": "example-schumann-haschemann-track-2-note-78",
          "pitch": 57,
          "start": 119,
          "duration": 1,
          "velocity": 90
        },
        {
          "id": "example-schumann-haschemann-track-2-note-79",
          "pitch": 58,
          "start": 120,
          "duration": 1,
          "velocity": 90
        },
        {
          "id": "example-schumann-haschemann-track-2-note-80",
          "pitch": 59,
          "start": 121,
          "duration": 1,
          "velocity": 90
        },
        {
          "id": "example-schumann-haschemann-track-2-note-81",
          "pitch": 60,
          "start": 122,
          "duration": 1,
          "velocity": 90
        },
        {
          "id": "example-schumann-haschemann-track-2-note-82",
          "pitch": 61,
          "start": 123,
          "duration": 1,
          "velocity": 90
        },
        {
          "id": "example-schumann-haschemann-track-2-note-83",
          "pitch": 62,
          "start": 124,
          "duration": 1,
          "velocity": 90
        },
        {
          "id": "example-schumann-haschemann-track-2-note-84",
          "pitch": 63,
          "start": 125,
          "duration": 1,
          "velocity": 90
        },
        {
          "id": "example-schumann-haschemann-track-2-note-85",
          "pitch": 64,
          "start": 126,
          "duration": 1,
          "velocity": 90
        },
        {
          "id": "example-schumann-haschemann-track-2-note-86",
          "pitch": 54,
          "start": 116,
          "duration": 12,
          "velocity": 127
        },
        {
          "id": "example-schumann-haschemann-track-2-note-87",
          "pitch": 42,
          "start": 116,
          "duration": 12,
          "velocity": 127
        },
        {
          "id": "example-schumann-haschemann-track-2-note-88",
          "pitch": 65,
          "start": 127,
          "duration": 1,
          "velocity": 90
        },
        {
          "id": "example-schumann-haschemann-track-2-note-89",
          "pitch": 59,
          "start": 130,
          "duration": 1,
          "velocity": 90
        },
        {
          "id": "example-schumann-haschemann-track-2-note-90",
          "pitch": 54,
          "start": 131,
          "duration": 1,
          "velocity": 90
        },
        {
          "id": "example-schumann-haschemann-track-2-note-91",
          "pitch": 47,
          "start": 132,
          "duration": 2,
          "velocity": 127
        },
        {
          "id": "example-schumann-haschemann-track-2-note-92",
          "pitch": 54,
          "start": 134,
          "duration": 2,
          "velocity": 127
        },
        {
          "id": "example-schumann-haschemann-track-2-note-93",
          "pitch": 62,
          "start": 134,
          "duration": 2,
          "velocity": 127
        },
        {
          "id": "example-schumann-haschemann-track-2-note-94",
          "pitch": 52,
          "start": 136,
          "duration": 2,
          "velocity": 127
        },
        {
          "id": "example-schumann-haschemann-track-2-note-95",
          "pitch": 59,
          "start": 138,
          "duration": 2,
          "velocity": 127
        },
        {
          "id": "example-schumann-haschemann-track-2-note-96",
          "pitch": 64,
          "start": 138,
          "duration": 2,
          "velocity": 127
        },
        {
          "id": "example-schumann-haschemann-track-2-note-97",
          "pitch": 47,
          "start": 140,
          "duration": 2,
          "velocity": 127
        },
        {
          "id": "example-schumann-haschemann-track-2-note-98",
          "pitch": 59,
          "start": 142,
          "duration": 2,
          "velocity": 127
        },
        {
          "id": "example-schumann-haschemann-track-2-note-99",
          "pitch": 62,
          "start": 142,
          "duration": 2,
          "velocity": 127
        },
        {
          "id": "example-schumann-haschemann-track-2-note-100",
          "pitch": 52,
          "start": 144,
          "duration": 1,
          "velocity": 127
        },
        {
          "id": "example-schumann-haschemann-track-2-note-101",
          "pitch": 64,
          "start": 146,
          "duration": 1,
          "velocity": 90
        },
        {
          "id": "example-schumann-haschemann-track-2-note-102",
          "pitch": 59,
          "start": 147,
          "duration": 1,
          "velocity": 90
        },
        {
          "id": "example-schumann-haschemann-track-2-note-103",
          "pitch": 52,
          "start": 148,
          "duration": 2,
          "velocity": 127
        },
        {
          "id": "example-schumann-haschemann-track-2-note-104",
          "pitch": 64,
          "start": 150,
          "duration": 2,
          "velocity": 127
        },
        {
          "id": "example-schumann-haschemann-track-2-note-105",
          "pitch": 67,
          "start": 150,
          "duration": 2,
          "velocity": 127
        },
        {
          "id": "example-schumann-haschemann-track-2-note-106",
          "pitch": 54,
          "start": 152,
          "duration": 2,
          "velocity": 127
        },
        {
          "id": "example-schumann-haschemann-track-2-note-107",
          "pitch": 64,
          "start": 154,
          "duration": 2,
          "velocity": 127
        },
        {
          "id": "example-schumann-haschemann-track-2-note-108",
          "pitch": 70,
          "start": 154,
          "duration": 2,
          "velocity": 127
        },
        {
          "id": "example-schumann-haschemann-track-2-note-109",
          "pitch": 59,
          "start": 156,
          "duration": 1,
          "velocity": 127
        },
        {
          "id": "example-schumann-haschemann-track-2-note-110",
          "pitch": 54,
          "start": 160,
          "duration": 2,
          "velocity": 127
        },
        {
          "id": "example-schumann-haschemann-track-2-note-111",
          "pitch": 64,
          "start": 162,
          "duration": 2,
          "velocity": 127
        },
        {
          "id": "example-schumann-haschemann-track-2-note-112",
          "pitch": 70,
          "start": 162,
          "duration": 2,
          "velocity": 127
        },
        {
          "id": "example-schumann-haschemann-track-2-note-113",
          "pitch": 59,
          "start": 164,
          "duration": 4,
          "velocity": 127
        },
        {
          "id": "example-schumann-haschemann-track-2-note-114",
          "pitch": 62,
          "start": 164,
          "duration": 4,
          "velocity": 127
        },
        {
          "id": "example-schumann-haschemann-track-2-note-115",
          "pitch": 71,
          "start": 164,
          "duration": 4,
          "velocity": 127
        }
      ]
    }
  ]
}
